{
DisplayStrings = (
nonO
);
customParameters = (
{
name = glyphOrder;
value = (
    space,
    exclam,
    quotedbl,
    numbersign,
    dollar,
    percent,
    ampersand,
    parenleft,
    parenright,
    asterisk,
    plus,
    comma,
    hyphen,
    period,
    slash,
    zero,
    one,
    two,
    three,
    four,
    five,
    six,
    seven,
    eight,
    nine,
    colon,
    semicolon,
    less,
    equal,
    greater,
    question,
    at,
    A,
    B,
    C,
    D,
    E,
    F,
    G,
    H,
    I,
    J,
    K,
    L,
    M,
    N,
    O,
    P,
    Q,
    R,
    S,
    T,
    U,
    V,
    W,
    X,
    Y,
    Z,
    bracketleft,
    backslash,
    bracketright,
    asciicircum,
    underscore,
    grave,
    a,
    b,
    c,
    d,
    e,
    f,
    g,
    h,
    i,
    j,
    k,
    l,
    m,
    n,
    o,
    p,
    q,
    r,
    s,
    t,
    u,
    v,
    w,
    x,
    y,
    z,
    braceleft,
    bar,
    braceright,
    asciitilde,
    exclamdown,
    cent,
    sterling,
    currency,
    yen,
    brokenbar,
    section,
    dieresis,
    copyright,
    guillemotleft,
    logicalnot,
    macron,
    degree,
    plusminus,
    acute,
    paragraph,
    periodcentered,
    cedilla,
    ordmasculine,
    guillemotright,
    onequarter,
    threequarters,
    Agrave,
    Aacute,
    Acircumflex,
    Atilde,
    Adieresis,
    Aring,
    AE,
    Ccedilla,
    Egrave,
    Eacute,
    Ecircumflex,
    Edieresis,
    Igrave,
    Iacute,
    Icircumflex,
    Idieresis,
    Eth,
    Ntilde,
    Ograve,
    Oacute,
    Ocircumflex,
    Otilde,
    Odieresis,
    multiply,
    Ugrave,
    Uacute,
    Ucircumflex,
    Udieresis,
    Yacute,
    Thorn,
    germandbls,
    agrave,
    aacute,
    acircumflex,
    atilde,
    adieresis,
    aring,
    ae,
    ccedilla,
    egrave,
    eacute,
    ecircumflex,
    edieresis,
    igrave,
    iacute,
    icircumflex,
    idieresis,
    eth,
    ntilde,
    ograve,
    oacute,
    ocircumflex,
    otilde,

glyphs = (
{
glyphname = exclam;
layers = (
{
layerId = "366068B8-3C1B-4939-B859-022828941345";
name = Regular;
paths = (
{
closed = 1;
nodes = (
"156 0 LINE",
"283 0 LINE",
"283 121 LINE",
"156 121 LINE"
);
},
{
closed = 1;
nodes = (
"196 357 LINE",
"224 357 LINE",
"258 1685 LINE",
"126 1685 LINE"
);
}
);
width = 396;
}
);
unicode = 0021;
userData = {
org.robofab.postScriptHintData = {
};
};
},
{
glyphname = quotedbl;
layers = (
{
layerId = "366068B8-3C1B-4939-B859-022828941345";
name = Regular;
paths = (
{
closed = 1;
nodes = (
"161 1495 LINE",
"171 1495 LINE",
"208 1711 OFFCURVE",
"206 1460 OFFCURVE",
"243 1679 CURVE",
"128 1679 LINE"
);
},
{
closed = 1;
nodes = (
"492 1495 LINE",
"511 1495 LINE",
"548 1711 OFFCURVE",
"504 1460 OFFCURVE",
"540 1679 CURVE",
"422 1679 LINE"
);
}
);
width = 667;
}
);
unicode = 0022;
userData = {
org.robofab.postScriptHintData = {
};
};
},
{
glyphname = numbersign;
layers = (
{
layerId = "366068B8-3C1B-4939-B859-022828941345";
name = Regular;
paths = (
{
closed = 1;
nodes = (
"-39 0 LINE",
"79 0 LINE",
"305 679 LINE",
"496 679 LINE",
"270 0 LINE",
"388 0 LINE",
"613 679 LINE",
"858 679 LINE",
"858 749 LINE",
"647 749 LINE",
"736 1040 LINE",
"929 1040 LINE",
"929 1097 LINE",
"767 1097 LINE",
"965 1687 LINE",
"847 1687 LINE",
"649 1097 LINE",
"458 1097 LINE",
"656 1687 LINE",
"538 1687 LINE",
"340 1097 LINE",
"98 1097 LINE",
"98 1040 LINE",
"310 1040 LINE",
"222 749 LINE",
"27 749 LINE",
"27 679 LINE",
"187 679 LINE"
);
},
{
closed = 1;
nodes = (
"339 749 LINE",
"427 1040 LINE",
"619 1040 LINE",
"530 749 LINE"
);
}
);
width = 965;
}
);
unicode = 0023;
userData = {
org.robofab.postScriptHintData = {
};
};
},
{
glyphname = dollar;
layers = (
{
layerId = "366068B8-3C1B-4939-B859-022828941345";
name = Regular;
paths = (
{
closed = 1;
nodes = (
"411 -154 LINE",
"496 -154 LINE",
"496 -24 LINE",
"706 -12 OFFCURVE",
"854 101 OFFCURVE",
"854 334 CURVE SMOOTH",
"854 467 OFFCURVE",
"705 603 OFFCURVE",
"586 706 CURVE",
"236 987 LINE",
"147 1064 OFFCURVE",
"100 1151 OFFCURVE",
"100 1222 CURVE SMOOTH",
"100 1425 OFFCURVE",
"248 1474 OFFCURVE",
"444 1474 CURVE SMOOTH",
"596 1474 OFFCURVE",
"732 1350 OFFCURVE",
"787 1189 CURVE SMOOTH",
"794 1176 OFFCURVE",
"801 1161 OFFCURVE",
"806 1143 CURVE",
"828 1177 LINE",
"825 1201 OFFCURVE",
"821 1205 OFFCURVE",
"816 1228 CURVE SMOOTH",
"757 1406 OFFCURVE",
"648 1503 OFFCURVE",
"496 1530 CURVE",
"496 1670 LINE",
"411 1670 LINE",
"411 1535 LINE",
"199 1537 OFFCURVE",
"41 1408 OFFCURVE",
"41 1212 CURVE SMOOTH",
"41 1147 OFFCURVE",
"88 1049 OFFCURVE",
"181 972 CURVE",
"553 683 LINE SMOOTH",
"702 567 OFFCURVE",
"799 435 OFFCURVE",
"799 319 CURVE SMOOTH",
"799 93 OFFCURVE",
"633 31 OFFCURVE",
"460 31 CURVE",
"268 39 OFFCURVE",
"138 169 OFFCURVE",
"97 373 CURVE SMOOTH",
"93 395 OFFCURVE",
"90 397 OFFCURVE",
"88 420 CURVE",
"50 393 LINE",
"99 188 OFFCURVE",
"221 3 OFFCURVE",
"411 -21 CURVE"
);
}
);
width = 865;
}
);
unicode = 0024;
userData = {
org.robofab.postScriptHintData = {
};
};
},
{
glyphname = percent;
layers = (
{
layerId = "366068B8-3C1B-4939-B859-022828941345";
name = Regular;
paths = (
{
closed = 1;
nodes = (
"201 938 CURVE SMOOTH",
"125 938 OFFCURVE",
"96 1029 OFFCURVE",
"96 1146 CURVE SMOOTH",
"96 1465 LINE SMOOTH",
"96 1574 OFFCURVE",
"126 1666 OFFCURVE",
"201 1666 CURVE SMOOTH",
"275 1666 OFFCURVE",
"306 1574 OFFCURVE",
"306 1466 CURVE SMOOTH",
"306 1146 LINE SMOOTH",
"306 1029 OFFCURVE",
"276 938 OFFCURVE"
);
},
{
closed = 1;
nodes = (
"201 882 CURVE SMOOTH",
"330 882 OFFCURVE",
"359 1011 OFFCURVE",
"359 1142 CURVE SMOOTH",
"359 1471 LINE SMOOTH",
"360 1602 OFFCURVE",
"324 1722 OFFCURVE",
"201 1722 CURVE SMOOTH",
"78 1722 OFFCURVE",
"41 1603 OFFCURVE",
"41 1471 CURVE SMOOTH",
"41 1142 LINE SMOOTH",
"41 1011 OFFCURVE",
"71 882 OFFCURVE"
);
},
{
closed = 1;
nodes = (
"779 18 CURVE SMOOTH",
"704 18 OFFCURVE",
"675 109 OFFCURVE",
"675 225 CURVE SMOOTH",
"675 547 LINE SMOOTH",
"675 654 OFFCURVE",
"705 746 OFFCURVE",
"779 746 CURVE SMOOTH",
"853 746 OFFCURVE",
"885 655 OFFCURVE",
"885 547 CURVE SMOOTH",
"885 225 LINE SMOOTH",
"885 109 OFFCURVE",
"855 18 OFFCURVE"
);
},
{
closed = 1;
nodes = (
"779 -38 CURVE SMOOTH",
"909 -38 OFFCURVE",
"938 90 OFFCURVE",
"938 221 CURVE SMOOTH",
"938 550 LINE SMOOTH",
"939 681 OFFCURVE",
"903 802 OFFCURVE",
"779 802 CURVE SMOOTH",
"656 802 OFFCURVE",
"619 682 OFFCURVE",
"620 550 CURVE SMOOTH",
"620 221 LINE SMOOTH",
"620 90 OFFCURVE",
"650 -38 OFFCURVE"
);
},
{
closed = 1;
nodes = (
"167 0 LINE",
"266 0 LINE",
"809 1673 LINE",
"708 1673 LINE"
);
}
);
width = 927;
}
);
unicode = 0025;
userData = {
org.robofab.postScriptHintData = {
};
};
},
{
glyphname = ampersand;
layers = (
{
layerId = "366068B8-3C1B-4939-B859-022828941345";
name = Regular;
paths = (
{
closed = 1;
nodes = (
"425 -24 CURVE SMOOTH",
"573 -24 OFFCURVE",
"699 44 OFFCURVE",
"808 139 CURVE",
"866 66 OFFCURVE",
"953 28 OFFCURVE",
"1033 2 CURVE SMOOTH",
"1049 -3 OFFCURVE",
"1064 -7 OFFCURVE",
"1079 -10 CURVE",
"1079 63 LINE",
"1010 61 OFFCURVE",
"933 97 OFFCURVE",
"857 180 CURVE",
"999 354 OFFCURVE",
"1086 605 OFFCURVE",
"1086 702 CURVE",
"1021 702 LINE",
"1021 518 OFFCURVE",
"937 351 OFFCURVE",
"826 223 CURVE",
"449 792 LINE",
"715 1021 OFFCURVE",
"811 1260 OFFCURVE",
"811 1407 CURVE SMOOTH",
"811 1579 OFFCURVE",
"702 1708 OFFCURVE",
"490 1708 CURVE SMOOTH",
"281 1708 OFFCURVE",
"143 1564 OFFCURVE",
"143 1343 CURVE SMOOTH",
"143 1216 OFFCURVE",
"204 1075 OFFCURVE",
"368 818 CURVE",
"171 676 OFFCURVE",
"69 424 OFFCURVE",
"69 260 CURVE SMOOTH",
"69 102 OFFCURVE",
"166 -24 OFFCURVE"
);
},
{
closed = 1;
nodes = (
"433 41 CURVE SMOOTH",
"219 41 OFFCURVE",
"137 137 OFFCURVE",
"137 271 CURVE SMOOTH",
"137 433 OFFCURVE",
"252 643 OFFCURVE",
"398 779 CURVE",
"376 824 OFFCURVE",
"816 150 OFFCURVE",
"789 194 CURVE",
"676 93 OFFCURVE",
"545 41 OFFCURVE"
);
},
{
closed = 1;
nodes = (
"415 852 CURVE",
"275 1075 OFFCURVE",
"231 1210 OFFCURVE",
"231 1335 CURVE SMOOTH",
"231 1454 OFFCURVE",
"294 1640 OFFCURVE",
"486 1640 CURVE SMOOTH",
"649 1640 OFFCURVE",
"723 1552 OFFCURVE",
"723 1408 CURVE SMOOTH",
"723 1236 OFFCURVE",
"603 1020 OFFCURVE"
);
}
);
width = 1083;
}
);
unicode = 0026;
userData = {
org.robofab.postScriptHintData = {
};
};
},
{
glyphname = parenleft;
layers = (
{
layerId = "366068B8-3C1B-4939-B859-022828941345";
name = Regular;
paths = (
{
closed = 1;
nodes = (
"501 -64 CURVE",
"501 30 LINE",
"198 32 OFFCURVE",
"193 419 OFFCURVE",
"193 895 CURVE SMOOTH",
"193 1349 OFFCURVE",
"227 1641 OFFCURVE",
"501 1642 CURVE",
"501 1737 LINE",
"91 1736 OFFCURVE",
"98 1157 OFFCURVE",
"98 836 CURVE SMOOTH",
"98 514 OFFCURVE",
"91 -63 OFFCURVE"
);
}
);
width = 467;
}
);
unicode = 0028;
userData = {
org.robofab.postScriptHintData = {
};
};
},
{
glyphname = parenright;
layers = (
{
layerId = "366068B8-3C1B-4939-B859-022828941345";
name = Regular;
paths = (
{
closed = 1;
nodes = (
"-21 -64 LINE",
"389 -63 OFFCURVE",
"382 514 OFFCURVE",
"382 836 CURVE SMOOTH",
"382 1158 OFFCURVE",
"389 1736 OFFCURVE",
"-21 1737 CURVE",
"-21 1642 LINE",
"254 1641 OFFCURVE",
"287 1349 OFFCURVE",
"287 895 CURVE SMOOTH",
"287 419 OFFCURVE",
"282 32 OFFCURVE",
"-21 30 CURVE"
);
}
);
width = 482;
}
);
unicode = 0029;
userData = {
org.robofab.postScriptHintData = {
};
};
},
{
glyphname = asterisk;
layers = (
{
layerId = "366068B8-3C1B-4939-B859-022828941345";
name = Regular;
paths = (
{
closed = 1;
nodes = (
"185 933 LINE",
"347 1192 LINE",
"511 933 LINE",
"554 954 LINE",
"376 1213 LINE",
"648 1318 LINE",
"629 1362 LINE",
"362 1242 LINE",
"380 1558 LINE",
"316 1558 LINE",
"330 1240 LINE",
"66 1360 LINE",
"46 1316 LINE",
"320 1212 LINE",
"142 958 LINE"
);
}
);
width = 696;
}
);
unicode = 002A;
userData = {
org.robofab.postScriptHintData = {
};
};
},
{
glyphname = plus;
layers = (
{
layerId = "366068B8-3C1B-4939-B859-022828941345";
name = Regular;
paths = (
{
closed = 1;
nodes = (
"278 382 LINE",
"356 382 LINE",
"356 573 LINE",
"547 573 LINE",
"547 643 LINE",
"356 643 LINE",
"356 834 LINE",
"278 834 LINE",
"278 643 LINE",
"87 643 LINE",
"87 573 LINE",
"278 573 LINE"
);
}
);
width = 601;
}
);
unicode = 002B;
userData = {
org.robofab.postScriptHintData = {
};
};
},
{
glyphname = comma;
layers = (
{
layerId = "366068B8-3C1B-4939-B859-022828941345";
name = Regular;
paths = (
{
closed = 1;
nodes = (
"163 -261 LINE",
"244 -222 OFFCURVE",
"249 -61 OFFCURVE",
"249 121 CURVE",
"122 121 LINE",
"122 0 LINE",
"258 0 LINE",
"258 -31 OFFCURVE",
"242 -206 OFFCURVE",
"141 -253 CURVE"
);
}
);
width = 355;
}
);
unicode = 002C;
userData = {
org.robofab.postScriptHintData = {
};
};
},
{
glyphname = hyphen;
layers = (
{
layerId = "366068B8-3C1B-4939-B859-022828941345";
name = Regular;
paths = (
{
closed = 1;
nodes = (
"165 446 LINE",
"434 446 LINE",
"434 515 LINE",
"165 515 LINE"
);
}
);
width = 575;
}
);
unicode = 002D;
userData = {
org.robofab.postScriptHintData = {
};
};
},
{
glyphname = period;
layers = (
{
layerId = "366068B8-3C1B-4939-B859-022828941345";
name = Regular;
paths = (
{
closed = 1;
nodes = (
"122 0 LINE",
"246 0 LINE",
"246 121 LINE",
"122 121 LINE"
);
}
);
width = 344;
}
);
unicode = 002E;
userData = {
org.robofab.postScriptHintData = {
};
};
},
{
glyphname = slash;
layers = (
{
layerId = "366068B8-3C1B-4939-B859-022828941345";
name = Regular;
paths = (
{
closed = 1;
nodes = (
"-79 0 LINE",
"50 0 LINE",
"592 1673 LINE",
"462 1673 LINE"
);
}
);
width = 548;
}
);
unicode = 002F;
userData = {
org.robofab.postScriptHintData = {
};
};
},
{
glyphname = zero;
layers = (
{
layerId = "366068B8-3C1B-4939-B859-022828941345";
name = Regular;
paths = (
{
closed = 1;
nodes = (
"508 21 CURVE SMOOTH",
"274 21 OFFCURVE",
"199 185 OFFCURVE",
"199 439 CURVE SMOOTH",
"199 1248 LINE SMOOTH",
"199 1499 OFFCURVE",
"278 1663 OFFCURVE",
"508 1663 CURVE SMOOTH",
"739 1663 OFFCURVE",
"816 1499 OFFCURVE",
"816 1248 CURVE SMOOTH",
"816 439 LINE SMOOTH",
"816 186 OFFCURVE",
"742 21 OFFCURVE"
);
},
{
closed = 1;
nodes = (
"508 -24 CURVE SMOOTH",
"822 -24 OFFCURVE",
"885 203 OFFCURVE",
"885 487 CURVE SMOOTH",
"885 1199 LINE SMOOTH",
"885 1482 OFFCURVE",
"805 1708 OFFCURVE",
"508 1708 CURVE SMOOTH",
"211 1708 OFFCURVE",
"131 1482 OFFCURVE",
"131 1199 CURVE SMOOTH",
"131 487 LINE SMOOTH",
"131 204 OFFCURVE",
"196 -24 OFFCURVE"
);
}
);
width = 1009;
}
);
unicode = 0030;
userData = {
org.robofab.postScriptHintData = {
};
};
},
{
glyphname = one;
layers = (
{
layerId = "366068B8-3C1B-4939-B859-022828941345";
name = Regular;
paths = (
{
closed = 1;
nodes = (
"236 0 LINE",
"308 0 LINE",
"308 1687 LINE",
"273 1687 LINE",
"212 1595 OFFCURVE",
"82 1508 OFFCURVE",
"40 1504 CURVE",
"40 1411 LINE",
"104 1425 OFFCURVE",
"153 1480 OFFCURVE",
"236 1537 CURVE"
);
}
);
width = 471;
}
);
unicode = 0031;
userData = {
org.robofab.postScriptHintData = {
};
};
},
{
glyphname = two;
layers = (
{
layerId = "366068B8-3C1B-4939-B859-022828941345";
name = Regular;
paths = (
{
closed = 1;
nodes = (
"64 0 LINE",
"777 0 LINE",
"777 28 LINE",
"151 28 LINE",
"111 -26 OFFCURVE",
"667 866 OFFCURVE",
"618 797 CURVE",
"690 903 OFFCURVE",
"806 1113 OFFCURVE",
"806 1245 CURVE SMOOTH",
"806 1524 OFFCURVE",
"705 1707 OFFCURVE",
"465 1707 CURVE SMOOTH",
"199 1707 OFFCURVE",
"77 1532 OFFCURVE",
"68 1223 CURVE",
"68 1238 LINE",
"139 1238 LINE",
"139 1495 OFFCURVE",
"195 1662 OFFCURVE",
"468 1662 CURVE SMOOTH",
"665 1662 OFFCURVE",
"736 1498 OFFCURVE",
"736 1244 CURVE SMOOTH",
"736 1088 OFFCURVE",
"616 901 OFFCURVE",
"536 778 CURVE SMOOTH",
"64 52 LINE"
);
}
);
width = 874;
}
);
unicode = 0032;
userData = {
org.robofab.postScriptHintData = {
};
};
},
{
glyphname = three;
layers = (
{
layerId = "366068B8-3C1B-4939-B859-022828941345";
name = Regular;
paths = (
{
closed = 1;
nodes = (
"412 -24 CURVE SMOOTH",
"681 -24 OFFCURVE",
"773 167 OFFCURVE",
"773 433 CURVE SMOOTH",
"773 804 OFFCURVE",
"604 872 OFFCURVE",
"516 889 CURVE",
"647 909 OFFCURVE",
"773 1035 OFFCURVE",
"773 1307 CURVE SMOOTH",
"773 1495 OFFCURVE",
"701 1707 OFFCURVE",
"437 1707 CURVE SMOOTH",
"145 1707 OFFCURVE",
"74 1491 OFFCURVE",
"74 1309 CURVE SMOOTH",
"74 1321 LINE",
"130 1321 LINE",
"146 1621 OFFCURVE",
"278 1662 OFFCURVE",
"433 1662 CURVE SMOOTH",
"597 1662 OFFCURVE",
"705 1596 OFFCURVE",
"705 1309 CURVE SMOOTH",
"705 1036 OFFCURVE",
"656 922 OFFCURVE",
"445 909 CURVE",
"445 873 LINE",
"654 848 OFFCURVE",
"705 669 OFFCURVE",
"705 429 CURVE SMOOTH",
"705 52 OFFCURVE",
"582 21 OFFCURVE",
"431 21 CURVE SMOOTH",
"267 21 OFFCURVE",
"139 6 OFFCURVE",
"130 353 CURVE",
"75 353 LINE",
"75 342 LINE SMOOTH",
"73 171 OFFCURVE",
"169 -24 OFFCURVE"
);
}
);
width = 864;
}
);
unicode = 0033;
userData = {
org.robofab.postScriptHintData = {
};
};
},
{
glyphname = four;
layers = (
{
layerId = "366068B8-3C1B-4939-B859-022828941345";
name = Regular;
paths = (
{
closed = 1;
nodes = (
"479 0 LINE",
"550 0 LINE",
"550 539 LINE",
"722 539 LINE",
"722 582 LINE",
"550 582 LINE",
"550 1690 LINE",
"391 1690 LINE",
"12 570 LINE",
"12 539 LINE",
"479 539 LINE"
);
},
{
closed = 1;
nodes = (
"109 582 LINE",
"478 1739 LINE",
"479 582 LINE"
);
}
);
width = 739;
}
);
unicode = 0034;
userData = {
org.robofab.postScriptHintData = {
};
};
},
{
glyphname = five;
layers = (
{
layerId = "366068B8-3C1B-4939-B859-022828941345";
name = Regular;
paths = (
{
closed = 1;
nodes = (
"472 -24 CURVE SMOOTH",
"701 -24 OFFCURVE",
"822 188 OFFCURVE",
"822 492 CURVE SMOOTH",
"822 797 OFFCURVE",
"730 1027 OFFCURVE",
"501 1027 CURVE SMOOTH",
"381 1027 OFFCURVE",
"258 973 OFFCURVE",
"196 895 CURVE",
"225 1658 LINE",
"702 1658 LINE",
"722 1687 LINE",
"146 1687 LINE",
"146 834 LINE",
"195 834 LINE",
"278 950 OFFCURVE",
"402 974 OFFCURVE",
"483 974 CURVE SMOOTH",
"653 974 OFFCURVE",
"749 890 OFFCURVE",
"749 489 CURVE SMOOTH",
"749 76 OFFCURVE",
"632 26 OFFCURVE",
"479 26 CURVE SMOOTH",
"310 26 OFFCURVE",
"206 53 OFFCURVE",
"205 386 CURVE",
"135 371 LINE",
"135 97 OFFCURVE",
"246 -24 OFFCURVE"
);
}
);
width = 878;
}
);
unicode = 0035;
userData = {
org.robofab.postScriptHintData = {
};
};
},
{
glyphname = six;
layers = (
{
layerId = "366068B8-3C1B-4939-B859-022828941345";
name = Regular;
paths = (
{
closed = 1;
nodes = (
"473 -26 CURVE SMOOTH",
"740 -26 OFFCURVE",
"848 157 OFFCURVE",
"848 437 CURVE SMOOTH",
"848 712 OFFCURVE",
"725 913 OFFCURVE",
"457 913 CURVE SMOOTH",
"339 913 OFFCURVE",
"255 898 OFFCURVE",
"195 875 CURVE",
"195 1293 LINE SMOOTH",
"195 1659 OFFCURVE",
"307 1662 OFFCURVE",
"453 1662 CURVE SMOOTH",
"623 1662 OFFCURVE",
"739 1652 OFFCURVE",
"748 1303 CURVE",
"807 1303 LINE",
"807 1327 LINE SMOOTH",
"807 1507 OFFCURVE",
"736 1707 OFFCURVE",
"473 1707 CURVE SMOOTH",
"226 1707 OFFCURVE",
"125 1561 OFFCURVE",
"125 1285 CURVE SMOOTH",
"125 465 LINE SMOOTH",
"125 120 OFFCURVE",
"222 -26 OFFCURVE"
);
},
{
closed = 1;
nodes = (
"473 21 CURVE SMOOTH",
"298 21 OFFCURVE",
"194 53 OFFCURVE",
"194 489 CURVE SMOOTH",
"194 832 LINE",
"244 853 OFFCURVE",
"386 862 OFFCURVE",
"487 862 CURVE SMOOTH",
"665 862 OFFCURVE",
"779 804 OFFCURVE",
"779 439 CURVE SMOOTH",
"779 60 OFFCURVE",
"658 21 OFFCURVE"
);
}
);
width = 923;
}
);
unicode = 0036;
userData = {
org.robofab.postScriptHintData = {
};
};
},
{
glyphname = seven;
layers = (
{
layerId = "366068B8-3C1B-4939-B859-022828941345";
name = Regular;
paths = (
{
closed = 1;
nodes = (
"156 0 LINE",
"238 0 LINE",
"447 1070 OFFCURVE",
"374 585 OFFCURVE",
"581 1655 CURVE",
"581 1688 LINE",
"-11 1688 LINE",
"-11 1622 LINE",
"491 1622 LINE"
);
}
);
width = 634;
}
);
unicode = 0037;
userData = {
org.robofab.postScriptHintData = {
};
};
},
{
glyphname = eight;
layers = (
{
layerId = "366068B8-3C1B-4939-B859-022828941345";
name = Regular;
paths = (
{
closed = 1;
nodes = (
"449 -25 CURVE SMOOTH",
"716 -25 OFFCURVE",
"811 171 OFFCURVE",
"811 434 CURVE SMOOTH",
"811 803 OFFCURVE",
"631 880 OFFCURVE",
"542 892 CURVE",
"684 904 OFFCURVE",
"821 1034 OFFCURVE",
"821 1307 CURVE SMOOTH",
"821 1524 OFFCURVE",
"725 1707 OFFCURVE",
"449 1707 CURVE SMOOTH",
"172 1707 OFFCURVE",
"78 1523 OFFCURVE",
"78 1307 CURVE SMOOTH",
"78 1034 OFFCURVE",
"214 903 OFFCURVE",
"356 892 CURVE",
"268 880 OFFCURVE",
"87 804 OFFCURVE",
"87 434 CURVE SMOOTH",
"87 171 OFFCURVE",
"181 -25 OFFCURVE"
);
},
{
closed = 1;
nodes = (
"449 29 CURVE SMOOTH",
"282 29 OFFCURVE",
"160 62 OFFCURVE",
"160 438 CURVE SMOOTH",
"160 695 OFFCURVE",
"235 835 OFFCURVE",
"449 865 CURVE",
"662 835 OFFCURVE",
"738 695 OFFCURVE",
"738 438 CURVE SMOOTH",
"738 61 OFFCURVE",
"616 29 OFFCURVE"
);
},
{
closed = 1;
nodes = (
"449 936 CURVE",
"234 952 OFFCURVE",
"148 997 OFFCURVE",
"148 1296 CURVE SMOOTH",
"148 1594 OFFCURVE",
"257 1649 OFFCURVE",
"449 1649 CURVE SMOOTH",
"640 1649 OFFCURVE",
"751 1595 OFFCURVE",
"751 1296 CURVE SMOOTH",
"751 997 OFFCURVE",
"664 952 OFFCURVE"
);
}
);
width = 898;
}
);
unicode = 0038;
userData = {
org.robofab.postScriptHintData = {
};
};
},
{
glyphname = nine;
layers = (
{
layerId = "366068B8-3C1B-4939-B859-022828941345";
name = Regular;
paths = (
{
closed = 1;
nodes = (
"455 -26 CURVE SMOOTH",
"701 -26 OFFCURVE",
"802 115 OFFCURVE",
"802 382 CURVE SMOOTH",
"802 1235 LINE SMOOTH",
"802 1572 OFFCURVE",
"706 1707 OFFCURVE",
"455 1707 CURVE SMOOTH",
"186 1707 OFFCURVE",
"80 1526 OFFCURVE",
"80 1246 CURVE SMOOTH",
"80 970 OFFCURVE",
"201 770 OFFCURVE",
"467 770 CURVE SMOOTH",
"586 770 OFFCURVE",
"671 786 OFFCURVE",
"732 813 CURVE",
"732 370 LINE SMOOTH",
"732 -5 OFFCURVE",
"611 21 OFFCURVE",
"475 21 CURVE SMOOTH",
"309 21 OFFCURVE",
"192 30 OFFCURVE",
"183 380 CURVE",
"125 380 LINE",
"125 355 LINE SMOOTH",
"121 176 OFFCURVE",
"196 -26 OFFCURVE"
);
},
{
closed = 1;
nodes = (
"441 822 CURVE SMOOTH",
"264 822 OFFCURVE",
"148 875 OFFCURVE",
"148 1241 CURVE SMOOTH",
"148 1619 OFFCURVE",
"268 1662 OFFCURVE",
"455 1662 CURVE SMOOTH",
"629 1662 OFFCURVE",
"733 1631 OFFCURVE",
"733 1194 CURVE SMOOTH",
"733 854 LINE",
"683 831 OFFCURVE",
"543 822 OFFCURVE"
);
}
);
width = 929;
}
);
unicode = 0039;
userData = {
org.robofab.postScriptHintData = {
};
};
},
{
glyphname = colon;
layers = (
{
layerId = "366068B8-3C1B-4939-B859-022828941345";
name = Regular;
paths = (
{
closed = 1;
nodes = (
"136 327 LINE",
"264 327 LINE",
"264 449 LINE",
"136 449 LINE"
);
},
{
closed = 1;
nodes = (
"136 778 LINE",
"264 778 LINE",
"264 899 LINE",
"136 899 LINE"
);
}
);
width = 387;
}
);
unicode = 003A;
userData = {
org.robofab.postScriptHintData = {
};
};
},
{
glyphname = semicolon;
layers = (
{
layerId = "366068B8-3C1B-4939-B859-022828941345";
name = Regular;
paths = (
{
closed = 1;
nodes = (
"181 40 LINE",
"262 79 OFFCURVE",
"260 223 OFFCURVE",
"267 422 CURVE",
"142 422 LINE",
"142 301 LINE",
"277 301 LINE",
"278 270 OFFCURVE",
"260 95 OFFCURVE",
"161 48 CURVE"
);
},
{
closed = 1;
nodes = (
"141 778 LINE",
"267 778 LINE",
"267 899 LINE",
"141 899 LINE"
);
}
);
width = 385;
}
);
unicode = 003B;
userData = {
org.robofab.postScriptHintData = {
};
};
},
{
glyphname = less;
layers = (
{
layerId = "366068B8-3C1B-4939-B859-022828941345";
name = Regular;
paths = (
{
closed = 1;
nodes = (
"601 111 CURVE",
"601 226 LINE",
"376 388 OFFCURVE",
"333 417 OFFCURVE",
"110 577 CURVE",
"601 926 LINE",
"601 1038 LINE",
"77 671 LINE",
"77 481 LINE",
"280 336 OFFCURVE",
"601 111 OFFCURVE"
);
}
);
width = 669;
}
);
unicode = 003C;
userData = {
org.robofab.postScriptHintData = {
};
};
},
{
glyphname = equal;
layers = (
{
layerId = "366068B8-3C1B-4939-B859-022828941345";
name = Regular;
paths = (
{
closed = 1;
nodes = (
"151 254 LINE",
"611 254 LINE",
"611 324 LINE",
"151 324 LINE"
);
},
{
closed = 1;
nodes = (
"151 573 LINE",
"611 573 LINE",
"611 643 LINE",
"151 643 LINE"
);
}
);
width = 745;
}
);
unicode = 003D;
userData = {
org.robofab.postScriptHintData = {
};
};
},
{
glyphname = greater;
layers = (
{
layerId = "366068B8-3C1B-4939-B859-022828941345";
name = Regular;
paths = (
{
closed = 1;
nodes = (
"97 111 LINE",
"621 481 LINE",
"621 671 LINE",
"415 813 OFFCURVE",
"97 1040 OFFCURVE",
"97 1040 CURVE",
"97 926 LINE",
"383 722 OFFCURVE",
"300 779 OFFCURVE",
"587 577 CURVE",
"97 226 LINE"
);
}
);
width = 669;
}
);
unicode = 003E;
userData = {
org.robofab.postScriptHintData = {
};
};
},
{
glyphname = question;
layers = (
{
layerId = "366068B8-3C1B-4939-B859-022828941345";
name = Regular;
paths = (
{
closed = 1;
nodes = (
"317 440 LINE",
"367 440 LINE",
"367 726 LINE",
"637 898 OFFCURVE",
"780 1050 OFFCURVE",
"780 1293 CURVE SMOOTH",
"780 1582 OFFCURVE",
"575 1709 OFFCURVE",
"420 1709 CURVE SMOOTH",
"262 1709 OFFCURVE",
"28 1579 OFFCURVE",
"28 1290 CURVE SMOOTH",
"28 1318 OFFCURVE",
"23 1140 OFFCURVE",
"15 1171 CURVE",
"74 1146 LINE",
"79 1129 OFFCURVE",
"83 1312 OFFCURVE",
"83 1295 CURVE SMOOTH",
"84 1541 OFFCURVE",
"238 1659 OFFCURVE",
"420 1659 CURVE SMOOTH",
"570 1659 OFFCURVE",
"727 1559 OFFCURVE",
"727 1281 CURVE SMOOTH",
"727 1224 OFFCURVE",
"748 1003 OFFCURVE",
"317 761 CURVE"
);
},
{
closed = 1;
nodes = (
"282 1 LINE",
"403 1 LINE",
"403 119 LINE",
"282 119 LINE"
);
}
);
width = 823;
}
);
unicode = 003F;
userData = {
org.robofab.postScriptHintData = {
};
};
},
{
glyphname = at;
layers = (
{
layerId = "366068B8-3C1B-4939-B859-022828941345";
name = Regular;
paths = (
{
closed = 1;
nodes = (
"721 111 CURVE SMOOTH",
"811 111 OFFCURVE",
"907 122 OFFCURVE",
"1016 145 CURVE",
"1026 217 LINE",
"958 210 OFFCURVE",
"842 186 OFFCURVE",
"714 186 CURVE SMOOTH",
"529 186 OFFCURVE",
"163 229 OFFCURVE",
"163 895 CURVE SMOOTH",
"163 1672 OFFCURVE",
"639 1609 OFFCURVE",
"669 1609 CURVE SMOOTH",
"914 1609 OFFCURVE",
"1156 1528 OFFCURVE",
"1156 919 CURVE SMOOTH",
"1156 561 OFFCURVE",
"1060 571 OFFCURVE",
"1016 571 CURVE SMOOTH",
"903 571 OFFCURVE",
"892 686 OFFCURVE",
"892 744 CURVE SMOOTH",
"892 1292 LINE",
"797 1292 LINE",
"797 1215 LINE",
"729 1266 OFFCURVE",
"655 1297 OFFCURVE",
"594 1297 CURVE SMOOTH",
"526 1297 OFFCURVE",
"400 1241 OFFCURVE",
"400 891 CURVE SMOOTH",
"400 812 OFFCURVE",
"403 511 OFFCURVE",
"581 511 CURVE SMOOTH",
"690 511 OFFCURVE",
"803 555 OFFCURVE",
"810 683 CURVE",
"825 586 OFFCURVE",
"920 509 OFFCURVE",
"1020 509 CURVE SMOOTH",
"1096 509 OFFCURVE",
"1252 571 OFFCURVE",
"1252 929 CURVE SMOOTH",
"1252 1431 OFFCURVE",
"1022 1687 OFFCURVE",
"664 1687 CURVE SMOOTH",
"371 1687 OFFCURVE",
"67 1441 OFFCURVE",
"67 900 CURVE SMOOTH",
"67 270 OFFCURVE",
"391 111 OFFCURVE"
);
},
{
closed = 1;
nodes = (
"613 571 CURVE SMOOTH",
"543 571 OFFCURVE",
"493 639 OFFCURVE",
"493 892 CURVE SMOOTH",
"493 1110 OFFCURVE",
"544 1244 OFFCURVE",
"626 1244 CURVE SMOOTH",
"666 1244 OFFCURVE",
"722 1229 OFFCURVE",
"797 1185 CURVE",
"797 677 LINE",
"756 623 OFFCURVE",
"715 571 OFFCURVE"
);
}
);
width = 1311;
}
);
unicode = 0040;
userData = {
org.robofab.postScriptHintData = {
};
};
},
{
glyphname = A;
layers = (
{
layerId = "366068B8-3C1B-4939-B859-022828941345";
name = Regular;
paths = (
{
closed = 1;
nodes = (
"63 0 LINE",
"129 0 LINE",
"224 474 LINE",
"689 474 LINE",
"780 0 LINE",
"848 0 LINE",
"503 1688 LINE",
"405 1688 LINE"
);
},
{
closed = 1;
nodes = (
"232 524 LINE",
"455 1630 LINE",
"679 524 LINE"
);
}
);
width = 911;
}
);
unicode = 0041;
userData = {
com.typemytype.robofont.layerData = {
};
org.robofab.postScriptHintData = {
};
};
},
{
glyphname = B;
layers = (
{
components = (
{
name = I;
transform = "{1, 0, 0, 1, 0, 0}";
}
);
layerId = "366068B8-3C1B-4939-B859-022828941345";
name = Regular;
paths = (
{
closed = 1;
nodes = (
"195 0 LINE",
"535 0 LINE SMOOTH",
"863 0 OFFCURVE",
"882 261 OFFCURVE",
"882 496 CURVE SMOOTH",
"882 609 OFFCURVE",
"863 844 OFFCURVE",
"672 904 CURVE",
"832 952 OFFCURVE",
"849 1161 OFFCURVE",
"849 1266 CURVE SMOOTH",
"849 1473 OFFCURVE",
"796 1688 OFFCURVE",
"489 1688 CURVE SMOOTH",
"194 1688 LINE",
"194 1632 LINE",
"493 1632 LINE SMOOTH",
"761 1632 OFFCURVE",
"785 1433 OFFCURVE",
"785 1266 CURVE SMOOTH",
"785 1105 OFFCURVE",
"743 927 OFFCURVE",
"563 927 CURVE SMOOTH",
"196 927 LINE",
"196 874 LINE",
"566 874 LINE SMOOTH",
"763 874 OFFCURVE",
"818 688 OFFCURVE",
"818 495 CURVE SMOOTH",
"818 205 OFFCURVE",
"761 56 OFFCURVE",
"537 56 CURVE SMOOTH",
"195 56 LINE"
);
}
);
width = 962;
}
);
unicode = 0042;
userData = {
com.typemytype.robofont.layerData = {
};
org.robofab.postScriptHintData = {
};
};
},
{
glyphname = C;
layers = (
{
layerId = "366068B8-3C1B-4939-B859-022828941345";
name = Regular;
paths = (
{
closed = 1;
nodes = (
"514 -24 CURVE SMOOTH",
"801 -24 OFFCURVE",
"876 178 OFFCURVE",
"876 453 CURVE SMOOTH",
"876 517 LINE",
"816 517 LINE",
"816 427 LINE SMOOTH",
"816 188 OFFCURVE",
"748 32 OFFCURVE",
"514 32 CURVE SMOOTH",
"254 32 OFFCURVE",
"190 203 OFFCURVE",
"190 446 CURVE SMOOTH",
"190 1240 LINE SMOOTH",
"190 1484 OFFCURVE",
"254 1652 OFFCURVE",
"514 1652 CURVE SMOOTH",
"740 1652 OFFCURVE",
"816 1508 OFFCURVE",
"816 1252 CURVE SMOOTH",
"816 1179 LINE",
"876 1179 LINE",
"876 1239 LINE SMOOTH",
"876 1514 OFFCURVE",
"793 1707 OFFCURVE",
"514 1707 CURVE SMOOTH",
"208 1707 OFFCURVE",
"126 1493 OFFCURVE",
"126 1230 CURVE SMOOTH",
"126 456 LINE SMOOTH",
"126 191 OFFCURVE",
"196 -24 OFFCURVE"
);
}
);
width = 971;
}
);
unicode = 0043;
userData = {
anchors = (
);
b = {
};
com.typemytype.robofont.layerData = {
};
components = (
);
contours = {
};
lib = {
};
name = C;
org.robofab.postScriptHintData = {
};
points = {
};
segmentType = line;
unicodes = (
);
width = 971;
x = 209;
y = "-24";
};
},
{
glyphname = D;
layers = (
{
components = (
{
name = uc_main_stem;
transform = "{1, 0, 0, 1, 0, 0}";
}
);
layerId = "366068B8-3C1B-4939-B859-022828941345";
name = Regular;
paths = (
{
closed = 1;
nodes = (
"191 1632 LINE",
"187 1632 OFFCURVE",
"543 1632 OFFCURVE",
"539 1632 CURVE SMOOTH",
"801 1634 OFFCURVE",
"862 1409 OFFCURVE",
"862 1177 CURVE SMOOTH",
"862 494 LINE SMOOTH",
"862 285 OFFCURVE",
"789 55 OFFCURVE",
"540 56 CURVE SMOOTH",
"544 56 OFFCURVE",
"195 56 OFFCURVE",
"195 56 CURVE",
"195 0 LINE",
"554 0 LINE SMOOTH",
"822 0 OFFCURVE",
"925 240 OFFCURVE",
"925 458 CURVE SMOOTH",
"925 1204 LINE SMOOTH",
"925 1437 OFFCURVE",
"824 1688 OFFCURVE",
"552 1688 CURVE SMOOTH",
"191 1688 LINE"
);
}
);
width = 1051;
}
);
unicode = 0044;
userData = {
com.typemytype.robofont.layerData = {
};
org.robofab.postScriptHintData = {
};
};
},
{
glyphname = E;
layers = (
{
components = (
{
name = uc_main_stem;
transform = "{1, 0, 0, 1, 0, 0}";
}
);
layerId = "366068B8-3C1B-4939-B859-022828941345";
name = Regular;
paths = (
{
closed = 1;
nodes = (
"196 844 LINE",
"565 844 LINE",
"565 899 LINE",
"196 899 LINE"
);
},
{
closed = 1;
nodes = (
"194 0 LINE",
"699 0 LINE",
"699 56 LINE",
"194 56 LINE"
);
},
{
closed = 1;
nodes = (
"195 1632 LINE",
"699 1632 LINE",
"699 1688 LINE",
"195 1688 LINE"
);
}
);
width = 763;
}
);
unicode = 0045;
userData = {
com.typemytype.robofont.layerData = {
};
org.robofab.postScriptHintData = {
};
};
},
{
glyphname = F;
layers = (
{
components = (
{
name = uc_main_stem;
transform = "{1, 0, 0, 1, 0, 0}";
}
);
layerId = "366068B8-3C1B-4939-B859-022828941345";
name = Regular;
paths = (
{
closed = 1;
nodes = (
"194 1632 LINE",
"706 1632 LINE",
"706 1688 LINE",
"194 1688 LINE"
);
},
{
closed = 1;
nodes = (
"196 844 LINE",
"616 844 LINE",
"616 899 LINE",
"196 899 LINE"
);
}
);
width = 686;
}
);
unicode = 0046;
userData = {
com.typemytype.robofont.layerData = {
};
org.robofab.postScriptHintData = {
};
};
},
{
glyphname = G;
layers = (
{
layerId = "366068B8-3C1B-4939-B859-022828941345";
name = Regular;
paths = (
{
closed = 1;
nodes = (
"516 -24 CURVE SMOOTH",
"803 -24 OFFCURVE",
"870 178 OFFCURVE",
"870 453 CURVE SMOOTH",
"870 517 LINE",
"820 517 LINE",
"820 413 LINE SMOOTH",
"820 174 OFFCURVE",
"750 32 OFFCURVE",
"516 32 CURVE SMOOTH",
"256 32 OFFCURVE",
"190 203 OFFCURVE",
"190 446 CURVE SMOOTH",
"190 1240 LINE SMOOTH",
"190 1484 OFFCURVE",
"256 1652 OFFCURVE",
"516 1652 CURVE SMOOTH",
"742 1652 OFFCURVE",
"820 1508 OFFCURVE",
"820 1252 CURVE SMOOTH",
"820 1179 LINE",
"880 1179 LINE",
"880 1239 LINE SMOOTH",
"880 1514 OFFCURVE",
"795 1707 OFFCURVE",
"516 1707 CURVE SMOOTH",
"210 1707 OFFCURVE",
"126 1493 OFFCURVE",
"126 1230 CURVE SMOOTH",
"126 456 LINE SMOOTH",
"126 191 OFFCURVE",
"198 -24 OFFCURVE"
);
},
{
closed = 1;
nodes = (
"838 0 LINE",
"880 0 LINE",
"880 777 LINE",
"532 777 LINE",
"532 723 LINE",
"817 723 LINE",
"817 260 LINE SMOOTH"
);
}
);
width = 1024;
}
);
unicode = 0047;
userData = {
com.typemytype.robofont.layerData = {
};
org.robofab.postScriptHintData = {
};
};
},
{
glyphname = H;
layers = (
{
components = (
{
name = uc_main_stem;
transform = "{1, 0, 0, 1, 705, 0}";
},
{
name = uc_main_stem;
transform = "{1, 0, 0, 1, 0, 0}";
}
);
layerId = "366068B8-3C1B-4939-B859-022828941345";
name = Regular;
paths = (
{
closed = 1;
nodes = (
"196 845 LINE",
"897 845 LINE",
"897 893 LINE",
"196 893 LINE"
);
}
);
width = 1093;
}
);
unicode = 0048;
userData = {
com.typemytype.robofont.layerData = {
};
org.robofab.postScriptHintData = {
};
};
},
{
glyphname = J;
layers = (
{
layerId = "366068B8-3C1B-4939-B859-022828941345";
name = Regular;
paths = (
{
closed = 1;
nodes = (
"17 -187 LINE",
"54 -187 LINE SMOOTH",
"336 -187 OFFCURVE",
"351 -70 OFFCURVE",
"351 200 CURVE SMOOTH",
"351 1688 LINE",
"287 1688 LINE",
"287 198 LINE SMOOTH",
"287 -90 OFFCURVE",
"278 -130 OFFCURVE",
"17 -131 CURVE"
);
}
);
width = 513;
}
);
unicode = 004A;
userData = {
com.typemytype.robofont.layerData = {
};
org.robofab.postScriptHintData = {
};
};
},
{
glyphname = K;
layers = (
{
components = (
{
name = uc_main_stem;
transform = "{1, 0, 0, 1, 0, 0}";
}
);
layerId = "366068B8-3C1B-4939-B859-022828941345";
name = Regular;
paths = (
{
closed = 1;
nodes = (
"195 544 LINE",
"416 946 LINE",
"848 0 LINE",
"914 0 LINE",
"456 999 LINE",
"816 1688 LINE",
"749 1688 LINE",
"195 639 LINE"
);
}
);
width = 910;
}
);
unicode = 004B;
userData = {
com.typemytype.robofont.layerData = {
};
org.robofab.postScriptHintData = {
};
};
},
{
glyphname = L;
layers = (
{
components = (
{
name = uc_main_stem;
transform = "{1, 0, 0, 1, 0, 0}";
}
);
layerId = "366068B8-3C1B-4939-B859-022828941345";
name = Regular;
paths = (
{
closed = 1;
nodes = (
"192 0 LINE",
"758 0 LINE",
"758 56 LINE",
"225 56 LINE"
);
}
);
width = 744;
}
);
unicode = 004C;
userData = {
com.typemytype.robofont.guides = (
);
com.typemytype.robofont.layerData = {
};
org.robofab.postScriptHintData = {
};
};
},
{
glyphname = M;
layers = (
{
layerId = "366068B8-3C1B-4939-B859-022828941345";
name = Regular;
paths = (
{
closed = 1;
nodes = (
"162 0 LINE",
"241 0 LINE",
"238 1419 LINE",
"596 0 LINE",
"670 0 LINE",
"645 -164 OFFCURVE",
"1058 1587 OFFCURVE",
"1033 1424 CURVE",
"1030 0 LINE",
"1109 0 LINE",
"1109 1688 LINE",
"1020 1688 LINE",
"838 764 OFFCURVE",
"829 1005 OFFCURVE",
"636 82 CURVE",
"245 1688 LINE",
"162 1688 LINE"
);
}
);
width = 1271;
}
);
unicode = 004D;
userData = {
org.robofab.postScriptHintData = {
};
};
},
{
glyphname = N;
layers = (
{
layerId = "366068B8-3C1B-4939-B859-022828941345";
name = Regular;
paths = (
{
closed = 1;
nodes = (
"162 0 LINE",
"222 0 LINE",
"222 1527 LINE",
"820 0 LINE",
"883 0 LINE",
"883 1687 LINE",
"823 1687 LINE",
"823 150 LINE",
"224 1687 LINE",
"162 1687 LINE"
);
}
);
width = 1045;
}
);
unicode = 004E;
userData = {
com.typemytype.robofont.layerData = {
};
org.robofab.postScriptHintData = {
};
};
},
{
glyphname = O;
layers = (
{
layerId = "366068B8-3C1B-4939-B859-022828941345";
name = Regular;
paths = (
{
closed = 1;
nodes = (
"528 32 CURVE SMOOTH",
"268 32 OFFCURVE",
"190 196 OFFCURVE",
"190 438 CURVE SMOOTH",
"190 1248 LINE SMOOTH",
"190 1490 OFFCURVE",
"268 1652 OFFCURVE",
"528 1652 CURVE SMOOTH",
"788 1652 OFFCURVE",
"866 1489 OFFCURVE",
"866 1248 CURVE SMOOTH",
"866 438 LINE SMOOTH",
"866 197 OFFCURVE",
"787 32 OFFCURVE"
);
},
{
closed = 1;
nodes = (
"528 -24 CURVE SMOOTH",
"846 -24 OFFCURVE",
"930 183 OFFCURVE",
"930 448 CURVE SMOOTH",
"930 1238 LINE SMOOTH",
"930 1501 OFFCURVE",
"834 1707 OFFCURVE",
"528 1707 CURVE SMOOTH",
"222 1707 OFFCURVE",
"126 1501 OFFCURVE",
"126 1238 CURVE SMOOTH",
"126 452 LINE SMOOTH",
"126 187 OFFCURVE",
"209 -24 OFFCURVE"
);
}
);
width = 1056;
}
);
unicode = 004F;
userData = {
com.typemytype.robofont.layerData = {
};
org.robofab.postScriptHintData = {
};
};
},
{
glyphname = P;
layers = (
{
components = (
{
name = uc_main_stem;
transform = "{1, 0, 0, 1, 0, 0}";
}
);
layerId = "366068B8-3C1B-4939-B859-022828941345";
name = Regular;
paths = (
{
closed = 1;
nodes = (
"194 767 LINE",
"221 767 OFFCURVE",
"586 767 OFFCURVE",
"589 767 CURVE SMOOTH",
"894 767 OFFCURVE",
"967 1062 OFFCURVE",
"967 1242 CURVE SMOOTH",
"967 1460 OFFCURVE",
"890 1688 OFFCURVE",
"591 1688 CURVE SMOOTH",
"589 1688 OFFCURVE",
"290 1688 OFFCURVE",
"194 1688 CURVE"
);
},
{
closed = 1;
nodes = (
"590 822 CURVE SMOOTH",
"589 822 OFFCURVE",
"222 822 OFFCURVE",
"224 822 CURVE",
"224 1634 LINE",
"223 1634 OFFCURVE",
"592 1634 OFFCURVE",
"591 1634 CURVE",
"796 1634 OFFCURVE",
"896 1523 OFFCURVE",
"896 1242 CURVE SMOOTH",
"896 964 OFFCURVE",
"780 819 OFFCURVE"
);
}
);
width = 996;
}
);
unicode = 0050;
userData = {
com.typemytype.robofont.layerData = {
};
org.robofab.postScriptHintData = {
};
};
},
{
glyphname = Q;
layers = (
{
components = (
{
name = O;
transform = "{1, 0, 0, 1, 0, 0}";
}
);
layerId = "366068B8-3C1B-4939-B859-022828941345";
name = Regular;
paths = (
{
closed = 1;
nodes = (
"954 -203 CURVE",
"954 -154 LINE",
"894 -126 OFFCURVE",
"760 -13 OFFCURVE",
"715 34 CURVE",
"673 18 LINE",
"783 -94 OFFCURVE",
"887 -179 OFFCURVE"
);
}
);
width = 1058;
}
);
unicode = 0051;
userData = {
com.typemytype.robofont.layerData = {
};
org.robofab.postScriptHintData = {
};
};
},
{
glyphname = R;
layers = (
{
components = (
{
name = I;
transform = "{1, 0, 0, 1, 0, 0}";
}
);
layerId = "366068B8-3C1B-4939-B859-022828941345";
name = Regular;
paths = (
{
closed = 1;
nodes = (
"197 868 LINE",
"611 868 LINE",
"887 0 LINE",
"952 0 LINE",
"952 0 OFFCURVE",
"671 875 OFFCURVE",
"671 875 CURVE",
"895 901 OFFCURVE",
"933 1099 OFFCURVE",
"933 1283 CURVE SMOOTH",
"933 1475 OFFCURVE",
"896 1688 OFFCURVE",
"618 1688 CURVE SMOOTH",
"194 1688 LINE",
"194 1632 LINE",
"609 1632 LINE SMOOTH",
"816 1632 OFFCURVE",
"869 1498 OFFCURVE",
"869 1283 CURVE SMOOTH",
"869 1083 OFFCURVE",
"835 925 OFFCURVE",
"616 925 CURVE SMOOTH",
"197 925 LINE"
);
}
);
width = 1044;
}
);
unicode = 0052;
userData = {
com.typemytype.robofont.layerData = {
};
org.robofab.postScriptHintData = {
};
};
},
{
glyphname = S;
layers = (
{
layerId = "366068B8-3C1B-4939-B859-022828941345";
name = Regular;
paths = (
{
closed = 1;
nodes = (
"480 -23 CURVE SMOOTH",
"695 -23 OFFCURVE",
"852 86 OFFCURVE",
"852 336 CURVE SMOOTH",
"852 500 OFFCURVE",
"715 647 OFFCURVE",
"592 781 CURVE SMOOTH",
"270 1132 LINE SMOOTH",
"180 1231 OFFCURVE",
"142 1308 OFFCURVE",
"142 1386 CURVE SMOOTH",
"142 1575 OFFCURVE",
"276 1653 OFFCURVE",
"447 1653 CURVE SMOOTH",
"640 1653 OFFCURVE",
"726 1566 OFFCURVE",
"775 1367 CURVE SMOOTH",
"795 1286 LINE",
"845 1301 LINE",
"826 1385 LINE SMOOTH",
"772 1622 OFFCURVE",
"657 1706 OFFCURVE",
"442 1706 CURVE SMOOTH",
"231 1706 OFFCURVE",
"83 1582 OFFCURVE",
"83 1383 CURVE SMOOTH",
"83 1299 OFFCURVE",
"130 1200 OFFCURVE",
"223 1099 CURVE SMOOTH",
"552 739 LINE SMOOTH",
"687 591 OFFCURVE",
"791 478 OFFCURVE",
"791 334 CURVE SMOOTH",
"791 119 OFFCURVE",
"669 33 OFFCURVE",
"482 33 CURVE SMOOTH",
"246 33 OFFCURVE",
"174 177 OFFCURVE",
"129 397 CURVE",
"73 377 LINE",
"111 148 OFFCURVE",
"224 -23 OFFCURVE"
);
}
);
width = 904;
}
);
unicode = 0053;
userData = {
anchors = (
);
b = {
};
com.typemytype.robofont.layerData = {
};
components = (
);
contours = {
};
lib = {
};
name = S;
org.robofab.postScriptHintData = {
};
points = {
};
segmentType = line;
unicodes = (
);
width = 904;
x = 254;
y = "-23";
};
},
{
glyphname = T;
layers = (
{
components = (
{
name = uc_main_stem;
transform = "{1, 0, 0, 1, 151, 0}";
}
);
layerId = "366068B8-3C1B-4939-B859-022828941345";
name = Regular;
paths = (
{
closed = 1;
nodes = (
"742 1632 LINE",
"742 1688 LINE",
"-57 1688 LINE",
"-57 1632 LINE"
);
}
);
width = 685;
}
);
unicode = 0054;
userData = {
com.typemytype.robofont.layerData = {
};
org.robofab.postScriptHintData = {
};
};
},
{
glyphname = U;
layers = (
{
layerId = "366068B8-3C1B-4939-B859-022828941345";
name = Regular;
paths = (
{
closed = 1;
nodes = (
"542 -24 CURVE SMOOTH",
"831 -24 OFFCURVE",
"942 132 OFFCURVE",
"942 320 CURVE SMOOTH",
"942 1688 LINE",
"878 1688 LINE",
"878 322 LINE SMOOTH",
"878 154 OFFCURVE",
"782 32 OFFCURVE",
"542 32 CURVE SMOOTH",
"285 32 OFFCURVE",
"206 151 OFFCURVE",
"206 322 CURVE SMOOTH",
"206 1688 LINE",
"142 1688 LINE",
"142 320 LINE SMOOTH",
"142 132 OFFCURVE",
"233 -24 OFFCURVE"
);
}
);
width = 1084;
}
);
unicode = 0055;
userData = {
com.typemytype.robofont.layerData = {
};
org.robofab.postScriptHintData = {
};
};
},
{
glyphname = V;
layers = (
{
layerId = "366068B8-3C1B-4939-B859-022828941345";
name = Regular;
paths = (
{
closed = 1;
nodes = (
"426 0 LINE",
"506 0 LINE",
"885 1688 LINE",
"815 1688 LINE",
"466 97 LINE",
"94 1688 LINE",
"24 1688 LINE"
);
}
);
width = 909;
}
);
unicode = 0056;
userData = {
com.typemytype.robofont.layerData = {
};
org.robofab.postScriptHintData = {
};
};
},
{
glyphname = W;
layers = (
{
layerId = "366068B8-3C1B-4939-B859-022828941345";
name = Regular;
paths = (
{
closed = 1;
nodes = (
"341 0 LINE",
"418 0 LINE",
"706 1577 LINE",
"1004 0 LINE",
"1081 0 LINE",
"1352 1688 LINE",
"1284 1688 LINE",
"1042 132 LINE",
"754 1638 LINE",
"663 1638 LINE",
"379 132 LINE",
"111 1688 LINE",
"44 1688 LINE"
);
}
);
width = 1396;
}
);
unicode = 0057;
userData = {
com.typemytype.robofont.layerData = {
};
org.robofab.postScriptHintData = {
};
};
},
{
glyphname = X;
layers = (
{
layerId = "366068B8-3C1B-4939-B859-022828941345";
name = Regular;
paths = (
{
closed = 1;
nodes = (
"806 0 LINE",
"869 0 LINE",
"90 1689 LINE",
"33 1689 LINE"
);
},
{
closed = 1;
nodes = (
"32 0 LINE",
"101 0 LINE",
"451 815 LINE",
"477 832 LINE",
"867 1689 LINE",
"798 1689 LINE",
"448 893 LINE",
"419 873 LINE"
);
}
);
width = 901;
}
);
unicode = 0058;
userData = {
com.typemytype.robofont.layerData = {
};
org.robofab.postScriptHintData = {
};
};
},
{
glyphname = Y;
layers = (
{
layerId = "366068B8-3C1B-4939-B859-022828941345";
name = Regular;
paths = (
{
closed = 1;
nodes = (
"390 0 LINE",
"457 0 LINE",
"457 508 LINE",
"832 1688 LINE",
"760 1688 LINE",
"610 1164 OFFCURVE",
"574 1107 OFFCURVE",
"426 583 CURVE",
"426 584 OFFCURVE",
"173 1321 OFFCURVE",
"72 1688 CURVE",
"-2 1688 LINE",
"390 508 LINE"
);
}
);
width = 830;
}
);
unicode = 0059;
userData = {
org.robofab.postScriptHintData = {
};
};
},
{
glyphname = Z;
layers = (
{
layerId = "366068B8-3C1B-4939-B859-022828941345";
name = Regular;
paths = (
{
closed = 1;
nodes = (
"58 0 LINE",
"771 0 LINE",
"771 56 LINE",
"129 56 LINE",
"768 1631 LINE",
"768 1688 LINE",
"121 1688 LINE",
"121 1632 LINE",
"699 1632 LINE",
"58 57 LINE"
);
}
);
width = 810;
}
);
unicode = 005A;
userData = {
com.typemytype.robofont.layerData = {
};
org.robofab.postScriptHintData = {
};
};
},
{
glyphname = bracketleft;
layers = (
{
layerId = "366068B8-3C1B-4939-B859-022828941345";
name = Regular;
paths = (
{
closed = 1;
nodes = (
"147 -64 LINE",
"388 -64 LINE",
"388 -15 LINE",
"242 -15 LINE",
"242 1677 LINE",
"388 1677 LINE",
"388 1725 LINE",
"147 1725 LINE"
);
}
);
width = 374;
}
);
unicode = 005B;
userData = {
org.robofab.postScriptHintData = {
};
};
},
{
glyphname = backslash;
layers = (
{
layerId = "366068B8-3C1B-4939-B859-022828941345";
name = Regular;
paths = (
{
closed = 1;
nodes = (
"657 0 LINE",
"740 0 LINE",
"39 1670 LINE",
"-46 1670 LINE"
);
}
);
width = 643;
}
);
unicode = 005C;
userData = {
org.robofab.postScriptHintData = {
};
};
},
{
glyphname = bracketright;
layers = (
{
layerId = "366068B8-3C1B-4939-B859-022828941345";
name = Regular;
paths = (
{
closed = 1;
nodes = (
"4 -64 LINE",
"258 -64 LINE",
"258 1747 LINE",
"4 1747 LINE",
"4 1685 LINE",
"150 1685 LINE",
"150 -3 LINE",
"4 -3 LINE"
);
}
);
width = 410;
}
);
unicode = 005D;
userData = {
org.robofab.postScriptHintData = {
};
};
},
{
glyphname = asciicircum;
layers = (
{
layerId = "366068B8-3C1B-4939-B859-022828941345";
name = Regular;
paths = (
{
closed = 1;
nodes = (
"34 891 CURVE",
"163 891 LINE",
"331 1483 LINE",
"500 891 LINE",
"627 891 LINE",
"420 1407 LINE",
"242 1407 LINE",
"242 1407 OFFCURVE",
"130 1133 OFFCURVE"
);
}
);
width = 645;
}
);
unicode = 005E;
userData = {
org.robofab.postScriptHintData = {
};
};
},
{
glyphname = underscore;
layers = (
{
layerId = "366068B8-3C1B-4939-B859-022828941345";
name = Regular;
paths = (
{
closed = 1;
nodes = (
"161 0 LINE",
"811 0 LINE",
"811 70 LINE",
"161 70 LINE"
);
}
);
width = 948;
}
);
unicode = 005F;
userData = {
org.robofab.postScriptHintData = {
};
};
},
{
glyphname = grave;
layers = (
{
layerId = "366068B8-3C1B-4939-B859-022828941345";
name = Regular;
paths = (
{
closed = 1;
nodes = (
"276 1295 LINE",
"270 1295 LINE",
"152 1674 LINE",
"67 1674 LINE"
);
}
);
width = 372;
}
);
unicode = 0060;
userData = {
org.robofab.postScriptHintData = {
};
};
},
{
glyphname = a;
layers = (
{
layerId = "366068B8-3C1B-4939-B859-022828941345";
name = Regular;
paths = (
{
closed = 1;
nodes = (
"305 -26 CURVE SMOOTH",
"366 -26 OFFCURVE",
"477 35 OFFCURVE",
"556 149 CURVE",
"569 0 LINE",
"638 0 LINE",
"650 -49 OFFCURVE",
"631 96 OFFCURVE",
"631 246 CURVE SMOOTH",
"631 804 LINE SMOOTH",
"631 953 OFFCURVE",
"635 1179 OFFCURVE",
"357 1179 CURVE SMOOTH",
"230 1179 OFFCURVE",
"133 1069 OFFCURVE",
"111 897 CURVE",
"195 897 LINE",
"195 876 LINE",
"212 1141 OFFCURVE",
"327 1143 OFFCURVE",
"378 1143 CURVE SMOOTH",
"458 1143 OFFCURVE",
"554 1121 OFFCURVE",
"555 659 CURVE",
"555 691 LINE",
"-2 462 OFFCURVE",
"82 302 OFFCURVE",
"82 217 CURVE SMOOTH",
"82 44 OFFCURVE",
"225 -26 OFFCURVE"
);
},
{
closed = 1;
nodes = (
"302 45 CURVE SMOOTH",
"245 45 OFFCURVE",
"159 85 OFFCURVE",
"159 244 CURVE SMOOTH",
"159 422 OFFCURVE",
"297 513 OFFCURVE",
"555 687 CURVE",
"555 223 LINE",
"502 113 OFFCURVE",
"391 45 OFFCURVE"
);
}
);
width = 737;
}
);
unicode = 0061;
userData = {
org.robofab.postScriptHintData = {
};
};
},
{
glyphname = c;
layers = (
{
layerId = "366068B8-3C1B-4939-B859-022828941345";
name = Regular;
paths = (
{
closed = 1;
nodes = (
"414 -26 CURVE SMOOTH",
"675 -26 OFFCURVE",
"664 187 OFFCURVE",
"678 422 CURVE",
"678 350 LINE",
"603 350 LINE",
"603 394 LINE",
"589 114 OFFCURVE",
"538 11 OFFCURVE",
"414 11 CURVE SMOOTH",
"228 11 OFFCURVE",
"189 173 OFFCURVE",
"189 666 CURVE SMOOTH",
"189 482 LINE SMOOTH",
"189 968 OFFCURVE",
"213 1143 OFFCURVE",
"414 1143 CURVE SMOOTH",
"545 1143 OFFCURVE",
"592 1040 OFFCURVE",
"603 767 CURVE",
"603 817 LINE",
"677 817 LINE",
"677 823 OFFCURVE",
"675 779 OFFCURVE",
"675 785 CURVE SMOOTH",
"658 979 OFFCURVE",
"635 1179 OFFCURVE",
"414 1179 CURVE SMOOTH",
"67 1179 OFFCURVE",
"118 803 OFFCURVE",
"118 519 CURVE SMOOTH",
"118 666 LINE SMOOTH",
"118 333 OFFCURVE",
"38 -26 OFFCURVE"
);
}
);
width = 769;
}
);
unicode = 0063;
userData = {
org.robofab.postScriptHintData = {
};
};
},
{
glyphname = d;
layers = (
{
layerId = "366068B8-3C1B-4939-B859-022828941345";
name = Regular;
paths = (
{
closed = 1;
nodes = (
"360 -26 CURVE SMOOTH",
"428 -26 OFFCURVE",
"531 -3 OFFCURVE",
"608 119 CURVE",
"608 0 LINE",
"680 0 LINE",
"680 1688 LINE",
"608 1688 LINE",
"608 1029 LINE",
"539 1135 OFFCURVE",
"451 1179 OFFCURVE",
"371 1179 CURVE SMOOTH",
"264 1179 OFFCURVE",
"110 1177 OFFCURVE",
"110 481 CURVE SMOOTH",
"110 670 LINE SMOOTH",
"110 -4 OFFCURVE",
"266 -26 OFFCURVE"
);
},
{
closed = 1;
nodes = (
"370 25 CURVE SMOOTH",
"284 25 OFFCURVE",
"182 20 OFFCURVE",
"182 640 CURVE SMOOTH",
"182 491 LINE SMOOTH",
"182 1118 OFFCURVE",
"280 1128 OFFCURVE",
"363 1128 CURVE SMOOTH",
"447 1128 OFFCURVE",
"528 1078 OFFCURVE",
"608 991 CURVE",
"608 166 LINE",
"532 76 OFFCURVE",
"440 25 OFFCURVE"
);
}
);
width = 810;
}
);
unicode = 0064;
userData = {
org.robofab.postScriptHintData = {
};
};
},
{
glyphname = e;
layers = (
{
layerId = "366068B8-3C1B-4939-B859-022828941345";
name = Regular;
paths = (
{
closed = 1;
nodes = (
"421 -26 CURVE SMOOTH",
"637 -26 OFFCURVE",
"642 161 OFFCURVE",
"671 346 CURVE SMOOTH",
"672 357 OFFCURVE",
"673 306 OFFCURVE",
"674 317 CURVE",
"614 317 LINE",
"614 305 OFFCURVE",
"614 353 OFFCURVE",
"614 342 CURVE SMOOTH",
"603 69 OFFCURVE",
"498 11 OFFCURVE",
"418 11 CURVE SMOOTH",
"284 11 OFFCURVE",
"191 51 OFFCURVE",
"191 491 CURVE SMOOTH",
"191 630 LINE",
"677 630 LINE",
"680 698 OFFCURVE",
"680 621 OFFCURVE",
"680 691 CURVE SMOOTH",
"680 1037 OFFCURVE",
"609 1179 OFFCURVE",
"419 1179 CURVE SMOOTH",
"267 1179 OFFCURVE",
"122 1140 OFFCURVE",
"118 645 CURVE",
"118 642 LINE",
"112 93 OFFCURVE",
"162 -26 OFFCURVE"
);
},
{
closed = 1;
nodes = (
"192 660 LINE",
"192 670 OFFCURVE",
"192 603 OFFCURVE",
"192 612 CURVE SMOOTH",
"192 966 OFFCURVE",
"195 1143 OFFCURVE",
"429 1143 CURVE SMOOTH",
"635 1143 OFFCURVE",
"606 845 OFFCURVE",
"608 608 CURVE SMOOTH",
"608 600 OFFCURVE",
"608 668 OFFCURVE",
"609 660 CURVE"
);
}
);
width = 782;
}
);
unicode = 0065;
userData = {
org.robofab.postScriptHintData = {
};
};
},
{
glyphname = f;
layers = (
{
layerId = "366068B8-3C1B-4939-B859-022828941345";
name = Regular;
paths = (
{
closed = 1;
nodes = (
"192 0 LINE",
"264 0 LINE",
"264 1128 LINE",
"468 1128 LINE",
"468 1153 LINE",
"264 1153 LINE",
"264 1383 LINE SMOOTH",
"264 1448 OFFCURVE",
"246 1562 OFFCURVE",
"394 1562 CURVE SMOOTH",
"405 1562 OFFCURVE",
"445 1560 OFFCURVE",
"462 1556 CURVE",
"462 1605 LINE",
"410 1617 OFFCURVE",
"396 1617 OFFCURVE",
"378 1617 CURVE SMOOTH",
"155 1617 OFFCURVE",
"191 1386 OFFCURVE",
"192 1335 CURVE SMOOTH",
"192 1153 LINE",
"-13 1153 LINE",
"-13 1128 LINE",
"192 1128 LINE"
);
}
);
width = 484;
}
);
unicode = 0066;
userData = {
org.robofab.postScriptHintData = {
};
};
},
{
glyphname = g;
layers = (
{
layerId = "366068B8-3C1B-4939-B859-022828941345";
name = Regular;
paths = (
{
closed = 1;
nodes = (
"379 -415 CURVE SMOOTH",
"452 -415 OFFCURVE",
"770 -410 OFFCURVE",
"770 -187 CURVE SMOOTH",
"770 -33 OFFCURVE",
"615 32 OFFCURVE",
"397 77 CURVE SMOOTH",
"149 128 OFFCURVE",
"155 130 OFFCURVE",
"166 156 CURVE SMOOTH",
"185 239 OFFCURVE",
"222 315 OFFCURVE",
"254 377 CURVE",
"296 360 OFFCURVE",
"353 350 OFFCURVE",
"414 350 CURVE SMOOTH",
"661 350 OFFCURVE",
"739 557 OFFCURVE",
"739 790 CURVE SMOOTH",
"739 836 OFFCURVE",
"719 891 OFFCURVE",
"703 952 CURVE",
"743 999 OFFCURVE",
"803 1054 OFFCURVE",
"857 1068 CURVE",
"846 1173 LINE",
"837 1171 OFFCURVE",
"846 1168 OFFCURVE",
"838 1165 CURVE SMOOTH",
"765 1124 OFFCURVE",
"734 1008 OFFCURVE",
"708 948 CURVE",
"631 1077 OFFCURVE",
"565 1177 OFFCURVE",
"403 1177 CURVE SMOOTH",
"164 1177 OFFCURVE",
"82 931 OFFCURVE",
"82 770 CURVE SMOOTH",
"82 633 OFFCURVE",
"122 476 OFFCURVE",
"238 394 CURVE",
"214 359 OFFCURVE",
"90 200 OFFCURVE",
"90 109 CURVE SMOOTH",
"90 66 OFFCURVE",
"275 33 OFFCURVE",
"275 37 CURVE",
"156 -16 OFFCURVE",
"15 -123 OFFCURVE",
"15 -291 CURVE SMOOTH",
"15 -422 OFFCURVE",
"317 -415 OFFCURVE"
);
},
{
closed = 1;
nodes = (
"379 -362 CURVE SMOOTH",
"267 -362 OFFCURVE",
"104 -371 OFFCURVE",
"104 -252 CURVE SMOOTH",
"104 -163 OFFCURVE",
"224 -12 OFFCURVE",
"300 36 CURVE",
"594 -29 LINE",
"715 -57 OFFCURVE",
"705 -114 OFFCURVE",
"705 -207 CURVE SMOOTH",
"705 -356 OFFCURVE",
"462 -362 OFFCURVE"
);
},
{
closed = 1;
nodes = (
"414 399 CURVE SMOOTH",
"196 399 OFFCURVE",
"168 625 OFFCURVE",
"168 744 CURVE SMOOTH",
"168 829 OFFCURVE",
"195 1103 OFFCURVE",
"412 1103 CURVE SMOOTH",
"628 1103 OFFCURVE",
"656 847 OFFCURVE",
"656 739 CURVE SMOOTH",
"656 623 OFFCURVE",
"627 399 OFFCURVE"
);
}
);
width = 846;
}
);
unicode = 0067;
userData = {
org.robofab.postScriptHintData = {
};
};
},
{
glyphname = h;
layers = (
{
layerId = "366068B8-3C1B-4939-B859-022828941345";
name = Regular;
paths = (
{
closed = 1;
nodes = (
"131 0 LINE",
"202 0 LINE",
"202 987 LINE",
"267 1077 OFFCURVE",
"368 1128 OFFCURVE",
"443 1128 CURVE SMOOTH",
"536 1128 OFFCURVE",
"602 1077 OFFCURVE",
"602 922 CURVE SMOOTH",
"602 0 LINE",
"677 0 LINE",
"677 896 LINE SMOOTH",
"677 1114 OFFCURVE",
"551 1179 OFFCURVE",
"453 1179 CURVE SMOOTH",
"371 1179 OFFCURVE",
"267 1143 OFFCURVE",
"202 1032 CURVE",
"202 1688 LINE",
"131 1688 LINE"
);
}
);
width = 799;
}
);
unicode = 0068;
userData = {
org.robofab.postScriptHintData = {
};
};
},
{
glyphname = i;
layers = (
{
layerId = "366068B8-3C1B-4939-B859-022828941345";
name = Regular;
paths = (
{
closed = 1;
nodes = (
"147 0 LINE",
"219 0 LINE",
"219 1153 LINE",
"147 1153 LINE"
);
},
{
closed = 1;
nodes = (
"147 1494 LINE",
"219 1494 LINE",
"219 1616 LINE",
"147 1616 LINE"
);
}
);
width = 353;
}
);
unicode = 0069;
userData = {
org.robofab.postScriptHintData = {
};
};
},
{
glyphname = j;
layers = (
{
layerId = "366068B8-3C1B-4939-B859-022828941345";
name = Regular;
paths = (
{
closed = 1;
nodes = (
"-14 -324 CURVE SMOOTH",
"129 -324 OFFCURVE",
"222 -268 OFFCURVE",
"222 -76 CURVE SMOOTH",
"222 1153 LINE",
"150 1153 LINE",
"150 -49 LINE SMOOTH",
"150 -115 OFFCURVE",
"156 -269 OFFCURVE",
"-11 -269 CURVE SMOOTH",
"-13 -269 OFFCURVE",
"-33 -271 OFFCURVE",
"-54 -273 CURVE",
"-54 -324 LINE",
"-34 -326 OFFCURVE",
"-7 -324 OFFCURVE"
);
},
{
closed = 1;
nodes = (
"150 1496 LINE",
"222 1496 LINE",
"222 1618 LINE",
"150 1618 LINE"
);
}
);
width = 367;
}
);
unicode = 006A;
userData = {
org.robofab.postScriptHintData = {
};
};
},
{
glyphname = k;
layers = (
{
layerId = "366068B8-3C1B-4939-B859-022828941345";
name = Regular;
paths = (
{
closed = 1;
nodes = (
"129 0 LINE",
"200 0 LINE",
"200 455 LINE",
"393 683 LINE",
"654 0 LINE",
"731 0 LINE",
"460 740 LINE",
"733 1153 LINE",
"645 1153 LINE",
"200 537 LINE",
"200 1688 LINE",
"129 1688 LINE"
);
}
);
width = 767;
}
);
unicode = 006B;
userData = {
org.robofab.postScriptHintData = {
};
};
},
{
glyphname = l;
layers = (
{
layerId = "366068B8-3C1B-4939-B859-022828941345";
name = Regular;
paths = (
{
closed = 1;
nodes = (
"167 0 LINE",
"238 0 LINE",
"238 1688 LINE",
"167 1688 LINE"
);
}
);
width = 405;
}
);
unicode = 006C;
userData = {
org.robofab.postScriptHintData = {
};
};
},
{
glyphname = o;
lastChange = "2013-05-01 14:04:28 -0700";
layers = (
{
layerId = "366068B8-3C1B-4939-B859-022828941345";
name = Regular;
paths = (
{
closed = 1;
nodes = (
"118 437 CURVE SMOOTH",
"118 715 LINE SMOOTH",
"118 1061 OFFCURVE",
"186 1172 OFFCURVE",
"397 1172 CURVE SMOOTH",
"608 1172 OFFCURVE",
"676 1061 OFFCURVE",
"676 715 CURVE SMOOTH",
"676 437 LINE SMOOTH",
"676 91 OFFCURVE",
"608 -20 OFFCURVE",
"397 -20 CURVE SMOOTH",
"186 -20 OFFCURVE",
"118 91 OFFCURVE"
);
},
{
closed = 1;
nodes = (
"182 437 LINE SMOOTH",
"182 129 OFFCURVE",
"234 30 OFFCURVE",
"397 30 CURVE SMOOTH",
"560 30 OFFCURVE",
"612 129 OFFCURVE",
"612 437 CURVE SMOOTH",
"612 715 LINE SMOOTH",
"612 1023 OFFCURVE",
"560 1122 OFFCURVE",
"397 1122 CURVE SMOOTH",
"234 1122 OFFCURVE",
"182 1023 OFFCURVE",
"182 715 CURVE SMOOTH"
);
}
);
width = 794;
}
);
unicode = 006F;
userData = {
anchors = (
);
angle = 90;
b = {
};
com.typemytype.robofont.guides = {
};
com.typemytype.robofont.layerData = {
};
components = (
);
contours = (
);
lib = {
};
magnetic = 5;
name = o;
org.robofab.postScriptHintData = {
};
unicodes = (
);
width = 794;
x = 397;
y = 1105;
};
},
{
glyphname = p;
layers = (
{
layerId = "366068B8-3C1B-4939-B859-022828941345";
name = Regular;
paths = (
{
closed = 1;
nodes = (
"131 -391 LINE",
"202 -391 LINE",
"202 119 LINE",
"271 19 OFFCURVE",
"356 -26 OFFCURVE",
"435 -26 CURVE SMOOTH",
"544 -26 OFFCURVE",
"700 -16 OFFCURVE",
"700 686 CURVE SMOOTH",
"700 497 LINE SMOOTH",
"700 1165 OFFCURVE",
"546 1179 OFFCURVE",
"454 1179 CURVE SMOOTH",
"385 1179 OFFCURVE",
"280 1157 OFFCURVE",
"202 1029 CURVE",
"202 1153 LINE",
"131 1153 LINE"
);
},
{
closed = 1;
nodes = (
"447 25 CURVE SMOOTH",
"363 25 OFFCURVE",
"282 76 OFFCURVE",
"202 163 CURVE",
"202 988 LINE",
"278 1078 OFFCURVE",
"370 1128 OFFCURVE",
"440 1128 CURVE SMOOTH",
"527 1128 OFFCURVE",
"628 1131 OFFCURVE",
"628 510 CURVE SMOOTH",
"628 658 LINE SMOOTH",
"628 33 OFFCURVE",
"529 25 OFFCURVE"
);
}
);
width = 817;
}
);
unicode = 0070;
userData = {
org.robofab.postScriptHintData = {
};
};
},
{
glyphname = q;
layers = (
{
layerId = "366068B8-3C1B-4939-B859-022828941345";
name = Regular;
paths = (
{
closed = 1;
nodes = (
"623 -391 LINE",
"695 -391 LINE",
"695 1153 LINE",
"623 1153 LINE",
"623 1033 LINE",
"544 1155 OFFCURVE",
"438 1179 OFFCURVE",
"367 1179 CURVE SMOOTH",
"272 1179 OFFCURVE",
"116 1157 OFFCURVE",
"116 482 CURVE SMOOTH",
"116 684 LINE SMOOTH",
"116 -18 OFFCURVE",
"272 -26 OFFCURVE",
"382 -26 CURVE SMOOTH",
"463 -26 OFFCURVE",
"553 17 OFFCURVE",
"623 123 CURVE"
);
},
{
closed = 1;
nodes = (
"374 25 CURVE SMOOTH",
"287 25 OFFCURVE",
"188 36 OFFCURVE",
"188 663 CURVE SMOOTH",
"188 509 LINE SMOOTH",
"188 1131 OFFCURVE",
"291 1128 OFFCURVE",
"381 1128 CURVE SMOOTH",
"452 1128 OFFCURVE",
"546 1078 OFFCURVE",
"623 986 CURVE",
"623 162 LINE",
"542 74 OFFCURVE",
"460 25 OFFCURVE"
);
}
);
width = 826;
}
);
unicode = 0071;
userData = {
org.robofab.postScriptHintData = {
};
};
},
{
glyphname = r;
layers = (
{
layerId = "366068B8-3C1B-4939-B859-022828941345";
name = Regular;
paths = (
{
closed = 1;
nodes = (
"131 0 LINE",
"203 0 LINE",
"203 902 LINE SMOOTH",
"203 1058 OFFCURVE",
"345 1083 OFFCURVE",
"470 1083 CURVE SMOOTH",
"470 1083 OFFCURVE",
"463 1079 OFFCURVE",
"447 1081 CURVE",
"447 1176 LINE",
"451 1174 OFFCURVE",
"454 1171 OFFCURVE",
"458 1170 CURVE SMOOTH",
"366 1159 OFFCURVE",
"238 1107 OFFCURVE",
"203 958 CURVE",
"203 1153 LINE",
"131 1153 LINE"
);
}
);
width = 458;
}
);
unicode = 0072;
userData = {
org.robofab.postScriptHintData = {
};
};
},
{
glyphname = s;
layers = (
{
layerId = "366068B8-3C1B-4939-B859-022828941345";
name = Regular;
paths = (
{
closed = 1;
nodes = (
"378 -26 CURVE SMOOTH",
"542 -26 OFFCURVE",
"651 63 OFFCURVE",
"651 231 CURVE",
"647 409 OFFCURVE",
"525 505 OFFCURVE",
"409 605 CURVE SMOOTH",
"300 698 LINE SMOOTH",
"218 769 OFFCURVE",
"163 835 OFFCURVE",
"163 931 CURVE SMOOTH",
"163 1048 OFFCURVE",
"231 1128 OFFCURVE",
"340 1128 CURVE SMOOTH",
"459 1128 OFFCURVE",
"514 985 OFFCURVE",
"525 875 CURVE",
"612 898 LINE",
"580 1040 OFFCURVE",
"515 1176 OFFCURVE",
"345 1176 CURVE SMOOTH",
"181 1176 OFFCURVE",
"95 1083 OFFCURVE",
"95 920 CURVE SMOOTH",
"95 811 OFFCURVE",
"180 733 OFFCURVE",
"283 643 CURVE SMOOTH",
"384 554 LINE SMOOTH",
"481 467 OFFCURVE",
"591 343 OFFCURVE",
"591 245 CURVE SMOOTH",
"591 115 OFFCURVE",
"527 23 OFFCURVE",
"393 23 CURVE SMOOTH",
"256 23 OFFCURVE",
"159 191 OFFCURVE",
"120 310 CURVE",
"65 294 LINE",
"103 130 OFFCURVE",
"201 -26 OFFCURVE"
);
}
);
width = 699;
}
);
unicode = 0073;
userData = {
org.robofab.postScriptHintData = {
};
};
},
{
glyphname = t;
layers = (
{
layerId = "366068B8-3C1B-4939-B859-022828941345";
name = Regular;
paths = (
{
closed = 1;
nodes = (
"355 -19 CURVE SMOOTH",
"381 -19 OFFCURVE",
"405 -14 OFFCURVE",
"450 -4 CURVE",
"450 33 LINE",
"422 27 OFFCURVE",
"393 24 OFFCURVE",
"366 24 CURVE SMOOTH",
"257 24 OFFCURVE",
"259 114 OFFCURVE",
"259 258 CURVE SMOOTH",
"259 1128 LINE",
"464 1128 LINE",
"464 1153 LINE",
"259 1153 LINE",
"259 1576 LINE",
"188 1576 LINE",
"188 1153 LINE",
"-3 1153 LINE",
"-3 1128 LINE",
"188 1128 LINE",
"188 214 LINE SMOOTH",
"188 92 OFFCURVE",
"200 -19 OFFCURVE"
);
}
);
width = 500;
}
);
unicode = 0074;
userData = {
org.robofab.postScriptHintData = {
};
};
},
{
glyphname = u;
layers = (
{
layerId = "366068B8-3C1B-4939-B859-022828941345";
name = Regular;
paths = (
{
closed = 1;
nodes = (
"344 -26 CURVE SMOOTH",
"431 -26 OFFCURVE",
"528 6 OFFCURVE",
"596 113 CURVE",
"596 0 LINE",
"668 0 LINE",
"668 1153 LINE",
"596 1153 LINE",
"596 165 LINE",
"520 70 OFFCURVE",
"427 25 OFFCURVE",
"358 25 CURVE SMOOTH",
"279 25 OFFCURVE",
"197 55 OFFCURVE",
"197 220 CURVE SMOOTH",
"197 1153 LINE",
"123 1153 LINE",
"123 259 LINE SMOOTH",
"123 41 OFFCURVE",
"253 -26 OFFCURVE"
);
}
);
width = 844;
}
);
unicode = 0075;
userData = {
org.robofab.postScriptHintData = {
};
};
},
{
glyphname = v;
layers = (
{
layerId = "366068B8-3C1B-4939-B859-022828941345";
name = Regular;
paths = (
{
closed = 1;
nodes = (
"303 0 LINE",
"409 0 LINE",
"655 1153 LINE",
"585 1153 LINE",
"355 15 LINE",
"105 1153 LINE",
"31 1153 LINE"
);
}
);
width = 686;
}
);
unicode = 0076;
userData = {
org.robofab.postScriptHintData = {
};
};
},
{
glyphname = w;
layers = (
{
layerId = "366068B8-3C1B-4939-B859-022828941345";
name = Regular;
paths = (
{
closed = 1;
nodes = (
"249 0 LINE",
"353 0 LINE",
"562 1079 LINE",
"784 0 LINE",
"868 0 LINE",
"1066 1153 LINE",
"992 1153 LINE",
"835 46 LINE",
"615 1153 LINE",
"494 1153 LINE",
"297 40 LINE",
"116 1153 LINE",
"48 1153 LINE"
);
}
);
width = 1114;
}
);
unicode = 0077;
userData = {
org.robofab.postScriptHintData = {
};
};
},
{
glyphname = x;
layers = (
{
layerId = "366068B8-3C1B-4939-B859-022828941345";
name = Regular;
paths = (
{
closed = 1;
nodes = (
"41 0 LINE",
"110 0 LINE",
"363 586 LINE",
"616 0 LINE",
"683 0 LINE",
"417 600 LINE",
"682 1153 LINE",
"601 1153 LINE",
"614 1211 OFFCURVE",
"350 559 OFFCURVE",
"363 616 CURVE",
"125 1153 LINE",
"44 1153 LINE",
"307 600 LINE"
);
}
);
width = 725;
}
);
unicode = 0078;
userData = {
org.robofab.postScriptHintData = {
};
};
},
{
glyphname = y;
layers = (
{
layerId = "366068B8-3C1B-4939-B859-022828941345";
name = Regular;
paths = (
{
closed = 1;
nodes = (
"73 -294 LINE",
"59 -294 LINE",
"262 -285 OFFCURVE",
"363 -235 OFFCURVE",
"401 -103 CURVE",
"708 1153 LINE",
"622 1153 LINE",
"376 37 LINE",
"132 1153 LINE",
"45 1153 LINE",
"32 1213 OFFCURVE",
"329 -105 OFFCURVE",
"312 37 CURVE",
"321 -15 OFFCURVE",
"324 -81 OFFCURVE",
"324 -115 CURVE SMOOTH",
"324 -166 OFFCURVE",
"248 -203 OFFCURVE",
"73 -217 CURVE"
);
}
);
width = 737;
}
);
unicode = 0079;
userData = {
org.robofab.postScriptHintData = {
};
};
},
{
glyphname = z;
layers = (
{
layerId = "366068B8-3C1B-4939-B859-022828941345";
name = Regular;
paths = (
{
closed = 1;
nodes = (
"43 0 LINE",
"608 0 LINE",
"608 61 LINE",
"114 61 LINE",
"616 1044 LINE",
"616 1153 LINE",
"110 1153 LINE",
"110 1093 LINE",
"562 1093 LINE",
"43 109 LINE"
);
}
);
width = 645;
}
);
unicode = 007A;
userData = {
org.robofab.postScriptHintData = {
};
};
},
{
glyphname = braceleft;
layers = (
{
layerId = "366068B8-3C1B-4939-B859-022828941345";
name = Regular;
paths = (
{
closed = 1;
nodes = (
"439 -54 CURVE",
"439 13 LINE",
"229 14 OFFCURVE",
"220 180 OFFCURVE",
"225 552 CURVE SMOOTH",
"228 679 OFFCURVE",
"210 807 OFFCURVE",
"67 832 CURVE",
"207 855 OFFCURVE",
"224 949 OFFCURVE",
"224 1079 CURVE SMOOTH",
"224 1444 OFFCURVE",
"224 1660 OFFCURVE",
"439 1661 CURVE",
"439 1728 LINE",
"105 1728 OFFCURVE",
"152 1327 OFFCURVE",
"152 996 CURVE SMOOTH",
"152 908 OFFCURVE",
"119 911 OFFCURVE",
"20 910 CURVE",
"20 764 LINE",
"120 763 OFFCURVE",
"152 714 OFFCURVE",
"152 641 CURVE SMOOTH",
"152 289 OFFCURVE",
"122 -54 OFFCURVE"
);
}
);
width = 418;
}
);
unicode = 007B;
userData = {
org.robofab.postScriptHintData = {
};
};
},
{
glyphname = bar;
layers = (
{
layerId = "366068B8-3C1B-4939-B859-022828941345";
name = Regular;
paths = (
{
closed = 1;
nodes = (
"157 -127 LINE",
"231 -127 LINE",
"231 1651 LINE",
"157 1651 LINE"
);
}
);
width = 411;
}
);
unicode = 007C;
userData = {
org.robofab.postScriptHintData = {
};
};
},
{
glyphname = braceright;
layers = (
{
layerId = "366068B8-3C1B-4939-B859-022828941345";
name = Regular;
paths = (
{
closed = 1;
nodes = (
"6 -54 LINE",
"323 -54 OFFCURVE",
"293 289 OFFCURVE",
"293 641 CURVE SMOOTH",
"293 715 OFFCURVE",
"325 763 OFFCURVE",
"425 764 CURVE",
"425 910 LINE",
"325 911 OFFCURVE",
"293 895 OFFCURVE",
"293 979 CURVE SMOOTH",
"293 1324 OFFCURVE",
"340 1728 OFFCURVE",
"6 1728 CURVE",
"6 1661 LINE",
"221 1660 OFFCURVE",
"221 1440 OFFCURVE",
"221 1063 CURVE SMOOTH",
"221 938 OFFCURVE",
"237 857 OFFCURVE",
"378 837 CURVE",
"238 812 OFFCURVE",
"218 688 OFFCURVE",
"221 563 CURVE SMOOTH",
"224 187 OFFCURVE",
"221 14 OFFCURVE",
"6 13 CURVE"
);
}
);
width = 432;
}
);
unicode = 007D;
userData = {
org.robofab.postScriptHintData = {
};
};
},
{
glyphname = asciitilde;
layers = (
{
layerId = "366068B8-3C1B-4939-B859-022828941345";
name = Regular;
paths = (
{
closed = 1;
nodes = (
"523 1000 CURVE SMOOTH",
"700 1000 OFFCURVE",
"667 1193 OFFCURVE",
"671 1140 CURVE",
"583 1140 LINE",
"573 1076 OFFCURVE",
"541 1074 OFFCURVE",
"505 1074 CURVE SMOOTH",
"425 1074 OFFCURVE",
"304 1146 OFFCURVE",
"234 1146 CURVE SMOOTH",
"74 1146 OFFCURVE",
"84 1003 OFFCURVE",
"81 1008 CURVE",
"168 1008 LINE",
"178 1073 OFFCURVE",
"204 1073 OFFCURVE",
"241 1073 CURVE SMOOTH",
"330 1073 OFFCURVE",
"417 1000 OFFCURVE"
);
}
);
width = 725;
}
);
unicode = 007E;
userData = {
org.robofab.postScriptHintData = {
};
};
},
{
glyphname = exclamdown;
layers = (
{
layerId = "366068B8-3C1B-4939-B859-022828941345";
name = Regular;
paths = (
{
closed = 1;
nodes = (
"146 -279 LINE",
"277 -279 LINE",
"208 1051 LINE",
"180 1051 LINE"
);
},
{
closed = 1;
nodes = (
"121 1287 LINE",
"248 1287 LINE",
"248 1407 LINE",
"121 1407 LINE"
);
}
);
width = 396;
}
);
unicode = 00A1;
userData = {
org.robofab.postScriptHintData = {
};
};
},
{
glyphname = cent;
layers = (
{
layerId = "366068B8-3C1B-4939-B859-022828941345";
name = Regular;
paths = (
{
closed = 1;
nodes = (
"338 234 LINE",
"392 234 LINE",
"392 327 LINE",
"621 341 OFFCURVE",
"616 540 OFFCURVE",
"630 765 CURVE SMOOTH",
"630 771 OFFCURVE",
"632 723 OFFCURVE",
"632 729 CURVE",
"557 729 LINE",
"557 755 OFFCURVE",
"555 752 OFFCURVE",
"555 749 CURVE SMOOTH",
"546 607 OFFCURVE",
"544 357 OFFCURVE",
"363 357 CURVE SMOOTH",
"171 357 OFFCURVE",
"143 524 OFFCURVE",
"143 957 CURVE SMOOTH",
"143 832 LINE",
"148 1264 OFFCURVE",
"154 1433 OFFCURVE",
"364 1433 CURVE SMOOTH",
"548 1433 OFFCURVE",
"550 1185 OFFCURVE",
"557 1067 CURVE",
"557 1078 LINE",
"630 1078 LINE",
"630 1085 OFFCURVE",
"629 1067 OFFCURVE",
"629 1074 CURVE SMOOTH",
"612 1259 OFFCURVE",
"587 1448 OFFCURVE",
"391 1463 CURVE",
"391 1532 LINE",
"336 1532 LINE",
"336 1464 LINE",
"26 1443 OFFCURVE",
"71 1108 OFFCURVE",
"71 861 CURVE SMOOTH",
"71 960 LINE SMOOTH",
"71 663 OFFCURVE",
"2 346 OFFCURVE",
"338 327 CURVE"
);
}
);
width = 674;
}
);
unicode = 00A2;
userData = {
org.robofab.postScriptHintData = {
};
};
},
{
glyphname = sterling;
layers = (
{
layerId = "366068B8-3C1B-4939-B859-022828941345";
name = Regular;
paths = (
{
closed = 1;
nodes = (
"43 0 LINE",
"680 0 LINE",
"680 44 LINE",
"236 44 LINE",
"236 786 LINE",
"544 786 LINE",
"544 841 LINE",
"236 841 LINE",
"236 1147 LINE SMOOTH",
"236 1440 OFFCURVE",
"234 1632 OFFCURVE",
"444 1644 CURVE SMOOTH",
"644 1657 OFFCURVE",
"644 1523 OFFCURVE",
"644 1359 CURVE",
"677 1359 LINE",
"677 1380 OFFCURVE",
"702 1708 OFFCURVE",
"452 1708 CURVE SMOOTH",
"173 1708 OFFCURVE",
"174 1301 OFFCURVE",
"174 1203 CURVE SMOOTH",
"174 832 LINE",
"43 832 LINE",
"43 786 LINE",
"174 786 LINE",
"174 60 LINE",
"43 14 LINE"
);
}
);
width = 709;
}
);
unicode = 00A3;
userData = {
org.robofab.postScriptHintData = {
};
};
},
{
glyphname = currency;
layers = (
{
layerId = "366068B8-3C1B-4939-B859-022828941345";
name = Regular;
paths = (
{
closed = 1;
nodes = (
"227 9 LINE",
"300 149 LINE",
"359 116 OFFCURVE",
"430 96 OFFCURVE",
"511 96 CURVE SMOOTH",
"603 96 OFFCURVE",
"681 121 OFFCURVE",
"742 162 CURVE",
"826 9 LINE",
"864 25 LINE",
"779 182 LINE",
"880 267 OFFCURVE",
"932 396 OFFCURVE",
"932 525 CURVE SMOOTH",
"932 650 OFFCURVE",
"882 778 OFFCURVE",
"784 863 CURVE",
"864 1010 LINE",
"826 1026 LINE",
"749 883 LINE",
"686 928 OFFCURVE",
"606 955 OFFCURVE",
"511 955 CURVE SMOOTH",
"427 955 OFFCURVE",
"354 934 OFFCURVE",
"293 897 CURVE",
"227 1026 LINE",
"188 1010 LINE",
"256 880 LINE",
"146 795 OFFCURVE",
"90 658 OFFCURVE",
"90 525 CURVE SMOOTH",
"90 388 OFFCURVE",
"149 250 OFFCURVE",
"263 165 CURVE",
"188 25 LINE"
);
},
{
closed = 1;
nodes = (
"511 155 CURVE",
"273 161 OFFCURVE",
"159 344 OFFCURVE",
"159 525 CURVE SMOOTH",
"159 707 OFFCURVE",
"278 888 OFFCURVE",
"511 896 CURVE",
"743 888 OFFCURVE",
"864 708 OFFCURVE",
"864 525 CURVE SMOOTH",
"864 343 OFFCURVE",
"743 161 OFFCURVE"
);
}
);
width = 1017;
}
);
unicode = 00A4;
userData = {
org.robofab.postScriptHintData = {
};
};
},
{
glyphname = yen;
layers = (
{
layerId = "366068B8-3C1B-4939-B859-022828941345";
name = Regular;
paths = (
{
closed = 1;
nodes = (
"381 0 LINE",
"477 0 LINE",
"477 212 LINE",
"686 212 LINE",
"686 258 LINE",
"477 258 LINE",
"477 507 LINE",
"686 507 LINE",
"686 551 LINE",
"492 551 LINE",
"849 1670 LINE",
"747 1670 LINE",
"571 1036 OFFCURVE",
"601 1216 OFFCURVE",
"428 583 CURVE",
"109 1670 LINE",
"-7 1670 LINE",
"-48 1822 OFFCURVE",
"408 399 OFFCURVE",
"366 551 CURVE",
"162 551 LINE",
"162 507 LINE",
"381 507 LINE",
"381 258 LINE",
"162 258 LINE",
"162 212 LINE",
"381 212 LINE"
);
}
);
width = 831;
}
);
unicode = 00A5;
userData = {
org.robofab.postScriptHintData = {
};
};
},
{
glyphname = brokenbar;
layers = (
{
layerId = "366068B8-3C1B-4939-B859-022828941345";
name = Regular;
paths = (
{
closed = 1;
nodes = (
"153 -14 LINE",
"243 -14 LINE",
"243 489 LINE",
"153 489 LINE"
);
},
{
closed = 1;
nodes = (
"153 884 LINE",
"243 884 LINE",
"243 1389 LINE",
"153 1389 LINE"
);
}
);
width = 387;
}
);
unicode = 00A6;
userData = {
org.robofab.postScriptHintData = {
};
};
},
{
glyphname = section;
layers = (
{
layerId = "366068B8-3C1B-4939-B859-022828941345";
name = Regular;
paths = (
{
closed = 1;
nodes = (
"386 -31 CURVE SMOOTH",
"543 -31 OFFCURVE",
"650 72 OFFCURVE",
"650 230 CURVE",
"647 328 OFFCURVE",
"615 398 OFFCURVE",
"565 465 CURVE",
"644 503 OFFCURVE",
"701 582 OFFCURVE",
"701 700 CURVE",
"697 865 OFFCURVE",
"566 984 OFFCURVE",
"450 1090 CURVE SMOOTH",
"466 1078 OFFCURVE",
"348 1184 OFFCURVE",
"365 1173 CURVE SMOOTH",
"274 1258 OFFCURVE",
"210 1347 OFFCURVE",
"210 1429 CURVE SMOOTH",
"210 1532 OFFCURVE",
"270 1612 OFFCURVE",
"369 1612 CURVE SMOOTH",
"485 1612 OFFCURVE",
"538 1465 OFFCURVE",
"548 1358 CURVE",
"644 1385 LINE",
"610 1520 OFFCURVE",
"538 1664 OFFCURVE",
"379 1664 CURVE SMOOTH",
"219 1664 OFFCURVE",
"121 1571 OFFCURVE",
"121 1410 CURVE SMOOTH",
"121 1326 OFFCURVE",
"169 1253 OFFCURVE",
"237 1177 CURVE",
"138 1148 OFFCURVE",
"70 1070 OFFCURVE",
"70 934 CURVE SMOOTH",
"70 812 OFFCURVE",
"193 717 OFFCURVE",
"308 608 CURVE SMOOTH",
"294 617 OFFCURVE",
"403 518 OFFCURVE",
"388 526 CURVE SMOOTH",
"476 430 OFFCURVE",
"570 299 OFFCURVE",
"570 225 CURVE SMOOTH",
"570 108 OFFCURVE",
"519 21 OFFCURVE",
"394 21 CURVE SMOOTH",
"263 21 OFFCURVE",
"175 190 OFFCURVE",
"139 305 CURVE",
"68 280 LINE",
"108 118 OFFCURVE",
"216 -31 OFFCURVE"
);
},
{
closed = 1;
nodes = (
"537 511 CURVE",
"549 503 OFFCURVE",
"357 675 OFFCURVE",
"369 665 CURVE SMOOTH",
"263 759 OFFCURVE",
"159 845 OFFCURVE",
"159 952 CURVE SMOOTH",
"159 1049 OFFCURVE",
"206 1120 OFFCURVE",
"295 1125 CURVE",
"375 1055 LINE SMOOTH",
"497 948 OFFCURVE",
"622 813 OFFCURVE",
"622 695 CURVE SMOOTH",
"622 609 OFFCURVE",
"601 538 OFFCURVE"
);
}
);
width = 752;
}
);
unicode = 00A7;
userData = {
org.robofab.postScriptHintData = {
};
};
},
{
glyphname = dieresis;
layers = (
{
layerId = "366068B8-3C1B-4939-B859-022828941345";
name = Regular;
paths = (
{
closed = 1;
nodes = (
"112 1341 LINE",
"246 1341 LINE",
"246 1466 LINE",
"112 1466 LINE"
);
},
{
closed = 1;
nodes = (
"467 1341 LINE",
"600 1341 LINE",
"600 1466 LINE",
"467 1466 LINE"
);
}
);
width = 739;
}
);
unicode = 00A8;
userData = {
org.robofab.postScriptHintData = {
};
};
},
{
glyphname = copyright;
layers = (
{
layerId = "366068B8-3C1B-4939-B859-022828941345";
name = Regular;
paths = (
{
closed = 1;
nodes = (
"660 223 CURVE SMOOTH",
"873 223 OFFCURVE",
"838 550 OFFCURVE",
"838 459 CURVE",
"802 459 LINE",
"798 329 OFFCURVE",
"770 250 OFFCURVE",
"658 250 CURVE SMOOTH",
"497 250 OFFCURVE",
"499 378 OFFCURVE",
"499 641 CURVE SMOOTH",
"499 922 OFFCURVE",
"499 1037 OFFCURVE",
"654 1037 CURVE SMOOTH",
"771 1037 OFFCURVE",
"799 954 OFFCURVE",
"803 820 CURVE",
"837 820 LINE",
"837 739 OFFCURVE",
"878 1065 OFFCURVE",
"657 1065 CURVE SMOOTH",
"452 1065 OFFCURVE",
"449 843 OFFCURVE",
"449 646 CURVE SMOOTH",
"449 444 OFFCURVE",
"451 223 OFFCURVE"
);
},
{
closed = 1;
nodes = (
"653 27 CURVE SMOOTH",
"269 27 OFFCURVE",
"102 332 OFFCURVE",
"102 631 CURVE SMOOTH",
"102 930 OFFCURVE",
"269 1235 OFFCURVE",
"653 1235 CURVE SMOOTH",
"1036 1235 OFFCURVE",
"1204 930 OFFCURVE",
"1204 631 CURVE SMOOTH",
"1204 332 OFFCURVE",
"1036 27 OFFCURVE"
);
},
{
closed = 1;
nodes = (
"653 3 CURVE SMOOTH",
"1077 3 OFFCURVE",
"1246 327 OFFCURVE",
"1246 629 CURVE SMOOTH",
"1246 931 OFFCURVE",
"1076 1255 OFFCURVE",
"653 1255 CURVE SMOOTH",
"229 1255 OFFCURVE",
"59 931 OFFCURVE",
"59 629 CURVE SMOOTH",
"59 328 OFFCURVE",
"229 3 OFFCURVE"
);
}
);
width = 1277;
}
);
unicode = 00A9;
userData = {
org.robofab.postScriptHintData = {
};
};
},
{
glyphname = guillemotleft;
layers = (
{
layerId = "366068B8-3C1B-4939-B859-022828941345";
name = Regular;
paths = (
{
closed = 1;
nodes = (
"440 149 LINE",
"440 299 LINE",
"156 641 LINE",
"440 981 LINE",
"440 1131 LINE",
"78 704 LINE",
"78 576 LINE"
);
},
{
closed = 1;
nodes = (
"695 149 LINE",
"695 299 LINE",
"411 641 LINE",
"695 981 LINE",
"695 1131 LINE",
"332 704 LINE",
"332 576 LINE"
);
}
);
width = 798;
}
);
unicode = 00AB;
userData = {
org.robofab.postScriptHintData = {
};
};
},
{
glyphname = logicalnot;
layers = (
{
layerId = "366068B8-3C1B-4939-B859-022828941345";
name = Regular;
paths = (
{
closed = 1;
nodes = (
"467 255 LINE",
"480 255 LINE",
"480 515 LINE",
"85 515 LINE",
"85 446 LINE",
"467 446 LINE"
);
}
);
width = 585;
}
);
unicode = 00AC;
userData = {
org.robofab.postScriptHintData = {
};
};
},
{
glyphname = macron;
layers = (
{
layerId = "366068B8-3C1B-4939-B859-022828941345";
name = Regular;
paths = (
{
closed = 1;
nodes = (
"201 1352 LINE",
"614 1352 LINE",
"614 1434 LINE",
"201 1434 LINE"
);
}
);
width = 817;
}
);
unicode = 00AF;
userData = {
org.robofab.postScriptHintData = {
};
};
},
{
glyphname = degree;
layers = (
{
layerId = "366068B8-3C1B-4939-B859-022828941345";
name = Regular;
paths = (
{
closed = 1;
nodes = (
"223 1400 CURVE SMOOTH",
"120 1400 OFFCURVE",
"99 1475 OFFCURVE",
"99 1523 CURVE SMOOTH",
"99 1570 OFFCURVE",
"120 1647 OFFCURVE",
"223 1647 CURVE SMOOTH",
"325 1647 OFFCURVE",
"348 1571 OFFCURVE",
"348 1523 CURVE SMOOTH",
"348 1475 OFFCURVE",
"326 1400 OFFCURVE"
);
},
{
closed = 1;
nodes = (
"223 1383 CURVE SMOOTH",
"336 1383 OFFCURVE",
"364 1476 OFFCURVE",
"364 1523 CURVE SMOOTH",
"364 1570 OFFCURVE",
"337 1664 OFFCURVE",
"223 1664 CURVE SMOOTH",
"109 1664 OFFCURVE",
"81 1570 OFFCURVE",
"81 1523 CURVE SMOOTH",
"81 1475 OFFCURVE",
"110 1383 OFFCURVE"
);
}
);
width = 444;
}
);
unicode = 00B0;
userData = {
org.robofab.postScriptHintData = {
};
};
},
{
glyphname = plusminus;
layers = (
{
layerId = "366068B8-3C1B-4939-B859-022828941345";
name = Regular;
paths = (
{
closed = 1;
nodes = (
"285 382 LINE",
"361 382 LINE",
"361 573 LINE",
"552 573 LINE",
"552 643 LINE",
"361 643 LINE",
"361 834 LINE",
"285 834 LINE",
"285 643 LINE",
"93 643 LINE",
"93 573 LINE",
"285 573 LINE"
);
},
{
closed = 1;
nodes = (
"93 0 LINE",
"552 0 LINE",
"552 70 LINE",
"93 70 LINE"
);
}
);
width = 621;
}
);
unicode = 00B1;
userData = {
org.robofab.postScriptHintData = {
};
};
},
{
glyphname = acute;
layers = (
{
layerId = "366068B8-3C1B-4939-B859-022828941345";
name = Regular;
paths = (
{
closed = 1;
nodes = (
"89 1295 LINE",
"83 1295 LINE",
"291 1674 LINE",
"206 1674 LINE"
);
}
);
width = 362;
}
);
unicode = 00B4;
userData = {
org.robofab.postScriptHintData = {
};
};
},
{
glyphname = paragraph;
layers = (
{
layerId = "366068B8-3C1B-4939-B859-022828941345";
name = Regular;
paths = (
{
closed = 1;
nodes = (
"387 0 LINE",
"469 0 LINE",
"469 871 LINE",
"721 871 LINE",
"721 0 LINE",
"784 0 LINE",
"784 1407 LINE",
"370 1407 LINE SMOOTH",
"111 1407 OFFCURVE",
"23 1282 OFFCURVE",
"23 1136 CURVE SMOOTH",
"23 962 OFFCURVE",
"158 869 OFFCURVE",
"387 871 CURVE"
);
}
);
width = 948;
}
);
unicode = 00B6;
userData = {
org.robofab.postScriptHintData = {
};
};
},
{
glyphname = periodcentered;
layers = (
{
layerId = "366068B8-3C1B-4939-B859-022828941345";
name = Regular;
paths = (
{
closed = 1;
nodes = (
"144 715 LINE",
"271 715 LINE",
"271 836 LINE",
"144 836 LINE"
);
}
);
width = 415;
}
);
unicode = 00B7;
userData = {
org.robofab.postScriptHintData = {
};
};
},
{
glyphname = cedilla;
layers = (
{
layerId = "366068B8-3C1B-4939-B859-022828941345";
name = Regular;
paths = (
{
closed = 1;
nodes = (
"102 -324 LINE",
"270 -324 OFFCURVE",
"269 -255 OFFCURVE",
"269 -241 CURVE SMOOTH",
"269 -221 OFFCURVE",
"260 -172 OFFCURVE",
"160 -109 CURVE",
"160 0 LINE",
"141 0 LINE",
"141 -89 LINE",
"207 -137 OFFCURVE",
"218 -196 OFFCURVE",
"218 -230 CURVE SMOOTH",
"218 -263 OFFCURVE",
"242 -308 OFFCURVE",
"102 -308 CURVE"
);
}
);
width = 392;
}
);
unicode = 00B8;
userData = {
org.robofab.postScriptHintData = {
};
};
},
{
glyphname = ordmasculine;
layers = (
{
layerId = "366068B8-3C1B-4939-B859-022828941345";
name = Regular;
paths = (
{
closed = 1;
nodes = (
"308 1115 CURVE SMOOTH",
"207 1115 OFFCURVE",
"173 1194 OFFCURVE",
"173 1555 CURVE SMOOTH",
"173 1524 LINE SMOOTH",
"173 1877 OFFCURVE",
"198 1964 OFFCURVE",
"308 1964 CURVE SMOOTH",
"414 1964 OFFCURVE",
"445 1876 OFFCURVE",
"445 1524 CURVE SMOOTH",
"445 1555 LINE SMOOTH",
"445 1196 OFFCURVE",
"409 1115 OFFCURVE"
);
},
{
closed = 1;
nodes = (
"305 1100 CURVE SMOOTH",
"544 1100 OFFCURVE",
"503 1341 OFFCURVE",
"503 1572 CURVE SMOOTH",
"503 1506 LINE SMOOTH",
"503 1713 OFFCURVE",
"544 1979 OFFCURVE",
"305 1979 CURVE SMOOTH",
"76 1979 OFFCURVE",
"110 1706 OFFCURVE",
"110 1506 CURVE SMOOTH",
"110 1572 LINE SMOOTH",
"110 1347 OFFCURVE",
"76 1100 OFFCURVE"
);
}
);
width = 610;
}
);
unicode = 00BA;
userData = {
org.robofab.postScriptHintData = {
};
};
},
{
glyphname = guillemotright;
layers = (
{
layerId = "366068B8-3C1B-4939-B859-022828941345";
name = Regular;
paths = (
{
closed = 1;
nodes = (
"124 149 LINE",
"487 576 LINE",
"487 704 LINE",
"124 1131 LINE",
"124 981 LINE",
"409 641 LINE",
"124 299 LINE"
);
},
{
closed = 1;
nodes = (
"379 149 LINE",
"742 576 LINE",
"742 704 LINE",
"379 1131 LINE",
"379 981 LINE",
"664 641 LINE",
"379 299 LINE"
);
}
);
width = 795;
}
);
unicode = 00BB;
userData = {
org.robofab.postScriptHintData = {
};
};
},
{
glyphname = onequarter;
layers = (
{
layerId = "366068B8-3C1B-4939-B859-022828941345";
name = Regular;
paths = (
{
closed = 1;
nodes = (
"1257 5 LINE",
"1357 5 LINE",
"1357 289 LINE",
"1493 289 LINE",
"1493 368 LINE",
"1357 368 LINE",
"1357 1194 LINE",
"1141 1194 LINE",
"861 362 LINE",
"861 289 LINE",
"1257 289 LINE"
);
},
{
closed = 1;
nodes = (
"189 563 LINE",
"289 563 LINE",
"289 1779 LINE",
"201 1779 LINE",
"143 1669 OFFCURVE",
"16 1606 OFFCURVE",
"-29 1596 CURVE",
"-29 1482 LINE",
"35 1497 OFFCURVE",
"106 1551 OFFCURVE",
"189 1609 CURVE"
);
},
{
closed = 1;
nodes = (
"316 0 LINE",
"445 0 LINE",
"988 1673 LINE",
"858 1673 LINE"
);
},
{
closed = 1;
nodes = (
"970 368 LINE",
"1256 1197 LINE",
"1257 368 LINE"
);
}
);
width = 1417;
}
);
unicode = 00BC;
userData = {
org.robofab.postScriptHintData = {
};
};
},
{
glyphname = threequarters;
layers = (
{
layerId = "366068B8-3C1B-4939-B859-022828941345";
name = Regular;
paths = (
{
closed = 1;
nodes = (
"307 561 CURVE SMOOTH",
"500 561 OFFCURVE",
"579 710 OFFCURVE",
"579 910 CURVE SMOOTH",
"579 997 OFFCURVE",
"502 1157 OFFCURVE",
"410 1219 CURVE",
"503 1265 OFFCURVE",
"579 1388 OFFCURVE",
"579 1489 CURVE SMOOTH",
"579 1651 OFFCURVE",
"504 1812 OFFCURVE",
"321 1812 CURVE SMOOTH",
"111 1812 OFFCURVE",
"27 1658 OFFCURVE",
"27 1407 CURVE",
"118 1407 LINE",
"118 1584 OFFCURVE",
"150 1727 OFFCURVE",
"322 1727 CURVE SMOOTH",
"437 1727 OFFCURVE",
"488 1632 OFFCURVE",
"488 1473 CURVE SMOOTH",
"488 1405 OFFCURVE",
"430 1289 OFFCURVE",
"314 1245 CURVE",
"314 1192 LINE",
"414 1163 OFFCURVE",
"488 981 OFFCURVE",
"488 911 CURVE SMOOTH",
"488 725 OFFCURVE",
"432 645 OFFCURVE",
"308 645 CURVE SMOOTH",
"149 645 OFFCURVE",
"118 787 OFFCURVE",
"118 963 CURVE",
"27 963 LINE",
"27 715 OFFCURVE",
"106 561 OFFCURVE"
);
},
{
closed = 1;
nodes = (
"1755 5 LINE",
"1855 5 LINE",
"1855 289 LINE",
"1991 289 LINE",
"1991 368 LINE",
"1855 368 LINE",
"1855 1194 LINE",
"1639 1194 LINE",
"1359 362 LINE",
"1359 289 LINE",
"1755 289 LINE"
);
},
{
closed = 1;
nodes = (
"669 0 LINE",
"799 0 LINE",
"1341 1673 LINE",
"1211 1673 LINE"
);
},
{
closed = 1;
nodes = (
"1468 368 LINE",
"1754 1197 LINE",
"1755 368 LINE"
);
}
);
width = 1888;
}
);
unicode = 00BE;
userData = {
org.robofab.postScriptHintData = {
};
};
},
{
glyphname = AE;
layers = (
{
layerId = "366068B8-3C1B-4939-B859-022828941345";
name = Regular;
paths = (
{
closed = 1;
nodes = (
"-1 0 LINE",
"53 0 LINE",
"228 474 LINE",
"664 474 LINE",
"664 0 LINE",
"1212 0 LINE",
"1212 68 LINE",
"738 68 LINE",
"738 844 LINE",
"1077 844 LINE",
"1077 899 LINE",
"738 899 LINE",
"738 1620 LINE",
"1212 1620 LINE",
"1212 1688 LINE",
"577 1688 LINE"
);
},
{
closed = 1;
nodes = (
"248 524 LINE",
"662 1723 LINE",
"662 524 LINE"
);
}
);
width = 1284;
}
);
unicode = 00C6;
userData = {
org.robofab.postScriptHintData = {
};
};
},
{
glyphname = Eth;
layers = (
{
layerId = "366068B8-3C1B-4939-B859-022828941345";
name = Regular;
paths = (
{
closed = 1;
nodes = (
"282 66 LINE",
"282 830 LINE",
"514 830 LINE",
"514 887 LINE",
"282 887 LINE",
"282 1622 LINE",
"611 1622 LINE SMOOTH",
"864 1623 OFFCURVE",
"920 1405 OFFCURVE",
"920 1177 CURVE SMOOTH",
"920 494 LINE SMOOTH",
"920 288 OFFCURVE",
"852 66 OFFCURVE",
"610 66 CURVE SMOOTH"
);
},
{
closed = 1;
nodes = (
"219 0 LINE",
"612 0 LINE SMOOTH",
"880 0 OFFCURVE",
"983 240 OFFCURVE",
"983 458 CURVE SMOOTH",
"983 1204 LINE SMOOTH",
"983 1437 OFFCURVE",
"883 1688 OFFCURVE",
"611 1688 CURVE SMOOTH",
"219 1688 LINE",
"219 887 LINE",
"59 887 LINE",
"59 830 LINE",
"219 830 LINE"
);
}
);
width = 1116;
}
);
unicode = 00D0;
userData = {
org.robofab.postScriptHintData = {
};
};
},
{
glyphname = multiply;
layers = (
{
layerId = "366068B8-3C1B-4939-B859-022828941345";
name = Regular;
paths = (
{
closed = 1;
nodes = (
"90 341 LINE",
"281 531 LINE",
"472 341 LINE",
"517 386 LINE",
"509 393 OFFCURVE",
"299 604 OFFCURVE",
"326 577 CURVE",
"517 768 LINE",
"472 811 LINE",
"281 620 LINE",
"90 811 LINE",
"45 768 LINE",
"236 577 LINE",
"45 386 LINE"
);
}
);
width = 609;
}
);
unicode = 00D7;
userData = {
org.robofab.postScriptHintData = {
};
};
},
{
glyphname = Thorn;
layers = (
{
layerId = "366068B8-3C1B-4939-B859-022828941345";
name = Regular;
paths = (
{
closed = 1;
nodes = (
"167 0 LINE",
"224 0 LINE",
"224 494 LINE",
"221 494 OFFCURVE",
"599 494 OFFCURVE",
"596 494 CURVE SMOOTH",
"935 490 OFFCURVE",
"971 796 OFFCURVE",
"971 976 CURVE SMOOTH",
"971 1194 OFFCURVE",
"882 1419 OFFCURVE",
"582 1419 CURVE SMOOTH",
"221 1419 LINE",
"221 1688 LINE",
"167 1688 LINE"
);
},
{
closed = 1;
nodes = (
"625 558 CURVE SMOOTH",
"626 558 OFFCURVE",
"220 559 OFFCURVE",
"221 559 CURVE",
"221 1355 LINE",
"220 1355 OFFCURVE",
"625 1355 OFFCURVE",
"624 1355 CURVE SMOOTH",
"788 1356 OFFCURVE",
"900 1250 OFFCURVE",
"900 969 CURVE SMOOTH",
"900 689 OFFCURVE",
"808 556 OFFCURVE"
);
}
);
width = 1074;
}
);
unicode = 00DE;
userData = {
org.robofab.postScriptHintData = {
};
};
},
{
glyphname = germandbls;
layers = (
{
layerId = "366068B8-3C1B-4939-B859-022828941345";
name = Regular;
paths = (
{
closed = 1;
nodes = (
"323 -24 LINE",
"813 -24 OFFCURVE",
"893 241 OFFCURVE",
"893 435 CURVE SMOOTH",
"893 600 OFFCURVE",
"863 909 OFFCURVE",
"601 963 CURVE",
"726 1015 OFFCURVE",
"801 1193 OFFCURVE",
"801 1319 CURVE SMOOTH",
"801 1587 OFFCURVE",
"610 1709 OFFCURVE",
"483 1709 CURVE SMOOTH",
"356 1709 OFFCURVE",
"153 1609 OFFCURVE",
"153 1330 CURVE SMOOTH",
"153 0 LINE",
"215 0 LINE",
"215 1323 LINE SMOOTH",
"215 1568 OFFCURVE",
"364 1660 OFFCURVE",
"465 1660 CURVE SMOOTH",
"568 1660 OFFCURVE",
"709 1565 OFFCURVE",
"709 1315 CURVE SMOOTH",
"709 1129 OFFCURVE",
"651 973 OFFCURVE",
"456 979 CURVE SMOOTH",
"459 980 OFFCURVE",
"309 980 OFFCURVE",
"312 980 CURVE",
"312 920 LINE",
"308 920 OFFCURVE",
"453 920 OFFCURVE",
"449 921 CURVE SMOOTH",
"774 926 OFFCURVE",
"827 683 OFFCURVE",
"827 419 CURVE SMOOTH",
"827 252 OFFCURVE",
"761 36 OFFCURVE",
"323 36 CURVE"
);
}
);
width = 994;
}
);
unicode = 00DF;
userData = {
org.robofab.postScriptHintData = {
};
};
},
{
glyphname = ae;
layers = (
{
layerId = "366068B8-3C1B-4939-B859-022828941345";
name = Regular;
paths = (
{
closed = 1;
nodes = (
"277 -26 CURVE SMOOTH",
"341 -26 OFFCURVE",
"505 13 OFFCURVE",
"554 236 CURVE",
"583 68 OFFCURVE",
"661 -26 OFFCURVE",
"813 -26 CURVE SMOOTH",
"1039 -31 OFFCURVE",
"1044 153 OFFCURVE",
"1071 348 CURVE SMOOTH",
"1073 317 LINE",
"1015 317 LINE",
"1015 326 OFFCURVE",
"1014 313 OFFCURVE",
"1014 330 CURVE",
"1007 39 OFFCURVE",
"917 6 OFFCURVE",
"830 6 CURVE SMOOTH",
"721 6 OFFCURVE",
"627 83 OFFCURVE",
"627 487 CURVE SMOOTH",
"627 605 LINE",
"571 596 OFFCURVE",
"1050 658 OFFCURVE",
"1050 941 CURVE SMOOTH",
"1050 1113 OFFCURVE",
"953 1179 OFFCURVE",
"847 1179 CURVE SMOOTH",
"744 1179 OFFCURVE",
"662 1145 OFFCURVE",
"597 1004 CURVE",
"558 1116 OFFCURVE",
"498 1178 OFFCURVE",
"365 1178 CURVE SMOOTH",
"227 1178 OFFCURVE",
"130 1073 OFFCURVE",
"107 897 CURVE",
"191 897 LINE",
"191 897 OFFCURVE",
"194 894 OFFCURVE",
"194 890 CURVE SMOOTH",
"215 1141 OFFCURVE",
"323 1147 OFFCURVE",
"380 1147 CURVE SMOOTH",
"450 1147 OFFCURVE",
"549 1153 OFFCURVE",
"552 696 CURVE",
"552 645 LINE",
"0 469 OFFCURVE",
"79 302 OFFCURVE",
"79 217 CURVE SMOOTH",
"79 70 OFFCURVE",
"184 -26 OFFCURVE"
);
},
{
closed = 1;
nodes = (
"273 43 CURVE SMOOTH",
"226 43 OFFCURVE",
"166 89 OFFCURVE",
"166 230 CURVE SMOOTH",
"166 430 OFFCURVE",
"258 483 OFFCURVE",
"544 586 CURVE",
"544 586 OFFCURVE",
"541 510 OFFCURVE",
"541 518 CURVE SMOOTH",
"541 409 OFFCURVE",
"471 43 OFFCURVE"
);
},
{
closed = 1;
nodes = (
"628 662 CURVE",
"628 600 LINE SMOOTH",
"628 924 OFFCURVE",
"617 1143 OFFCURVE",
"857 1143 CURVE SMOOTH",
"932 1143 OFFCURVE",
"975 1062 OFFCURVE",
"975 971 CURVE SMOOTH",
"975 888 OFFCURVE",
"1022 740 OFFCURVE"
);
}
);
width = 1183;
}
);
unicode = 00E6;
userData = {
org.robofab.postScriptHintData = {
};
};
},
{
glyphname = eth;
layers = (
{
layerId = "366068B8-3C1B-4939-B859-022828941345";
name = Regular;
paths = (
{
closed = 1;
nodes = (
"382 -26 CURVE SMOOTH",
"649 -26 OFFCURVE",
"703 195 OFFCURVE",
"703 581 CURVE SMOOTH",
"703 260 LINE",
"701 770 OFFCURVE",
"661 1113 OFFCURVE",
"574 1337 CURVE",
"717 1354 LINE",
"745 1430 LINE",
"551 1402 LINE",
"454 1610 OFFCURVE",
"307 1686 OFFCURVE",
"105 1707 CURVE",
"145 1645 LINE",
"293 1628 OFFCURVE",
"401 1587 OFFCURVE",
"482 1421 CURVE",
"365 1413 LINE",
"337 1337 LINE",
"507 1357 LINE",
"541 1272 OFFCURVE",
"573 1161 OFFCURVE",
"598 1014 CURVE",
"557 1039 OFFCURVE",
"493 1054 OFFCURVE",
"411 1054 CURVE SMOOTH",
"146 1054 OFFCURVE",
"84 757 OFFCURVE",
"83 388 CURVE",
"83 612 LINE SMOOTH",
"83 254 OFFCURVE",
"133 -26 OFFCURVE"
);
},
{
closed = 1;
nodes = (
"382 36 CURVE SMOOTH",
"241 36 OFFCURVE",
"155 155 OFFCURVE",
"155 611 CURVE SMOOTH",
"155 409 LINE",
"158 858 OFFCURVE",
"228 992 OFFCURVE",
"366 992 CURVE SMOOTH",
"446 992 OFFCURVE",
"566 977 OFFCURVE",
"612 955 CURVE",
"626 738 OFFCURVE",
"633 785 OFFCURVE",
"633 640 CURVE SMOOTH",
"633 85 OFFCURVE",
"532 36 OFFCURVE"
);
}
);
width = 830;
}
);
unicode = 00F0;
userData = {
org.robofab.postScriptHintData = {
};
};
},
{
glyphname = divide;
layers = (
{
layerId = "366068B8-3C1B-4939-B859-022828941345";
name = Regular;
paths = (
{
closed = 1;
nodes = (
"238 232 LINE",
"379 232 LINE",
"379 365 LINE",
"238 365 LINE"
);
},
{
closed = 1;
nodes = (
"47 573 LINE",
"570 573 LINE",
"570 643 LINE",
"47 643 LINE"
);
},
{
closed = 1;
nodes = (
"238 874 LINE",
"379 874 LINE",
"379 1008 LINE",
"238 1008 LINE"
);
}
);
width = 665;
}
);
unicode = 00F7;
userData = {
org.robofab.postScriptHintData = {
};
};
},
{
glyphname = thorn;
layers = (
{
layerId = "366068B8-3C1B-4939-B859-022828941345";
name = Regular;
paths = (
{
closed = 1;
nodes = (
"129 -391 LINE",
"200 -391 LINE",
"200 119 LINE",
"279 -3 OFFCURVE",
"385 -26 OFFCURVE",
"457 -26 CURVE SMOOTH",
"551 -26 OFFCURVE",
"707 -4 OFFCURVE",
"707 670 CURVE SMOOTH",
"707 469 LINE SMOOTH",
"707 1170 OFFCURVE",
"551 1179 OFFCURVE",
"441 1179 CURVE SMOOTH",
"360 1179 OFFCURVE",
"271 1135 OFFCURVE",
"200 1029 CURVE",
"200 1688 LINE",
"129 1688 LINE"
);
},
{
closed = 1;
nodes = (
"443 28 CURVE SMOOTH",
"371 28 OFFCURVE",
"277 76 OFFCURVE",
"200 166 CURVE",
"200 991 LINE",
"281 1078 OFFCURVE",
"364 1127 OFFCURVE",
"450 1127 CURVE SMOOTH",
"536 1127 OFFCURVE",
"635 1117 OFFCURVE",
"635 490 CURVE SMOOTH",
"635 644 LINE SMOOTH",
"635 24 OFFCURVE",
"533 28 OFFCURVE"
);
}
);
width = 826;
}
);
unicode = 00FE;
userData = {
org.robofab.postScriptHintData = {
};
};
},
{
glyphname = dotlessi;
layers = (
{
layerId = "366068B8-3C1B-4939-B859-022828941345";
name = Regular;
paths = (
{
closed = 1;
nodes = (
"135 0 LINE",
"207 0 LINE",
"207 1153 LINE",
"135 1153 LINE"
);
}
);
width = 352;
}
);
unicode = 0131;
userData = {
org.robofab.postScriptHintData = {
};
};
},
{
glyphname = circumflex;
layers = (
{
layerId = "366068B8-3C1B-4939-B859-022828941345";
name = Regular;
paths = (
{
closed = 1;
nodes = (
"89 1414 LINE",
"134 1414 LINE",
"315 1754 LINE",
"496 1414 LINE",
"537 1414 LINE",
"406 1680 LINE",
"226 1680 LINE"
);
}
);
width = 637;
}
);
unicode = 02C6;
userData = {
org.robofab.postScriptHintData = {
};
};
},
{
glyphname = caron;
layers = (
{
layerId = "366068B8-3C1B-4939-B859-022828941345";
name = Regular;
paths = (
{
closed = 1;
nodes = (
"284 1298 LINE",
"241 1298 LINE",
"452 1621 LINE",
"366 1621 LINE",
"262 1368 LINE",
"158 1621 LINE",
"71 1621 LINE"
);
}
);
width = 517;
}
);
unicode = 02C7;
userData = {
org.robofab.postScriptHintData = {
};
};
},
{
glyphname = breve;
layers = (
{
layerId = "366068B8-3C1B-4939-B859-022828941345";
name = Regular;
paths = (
{
closed = 1;
nodes = (
"376 1260 CURVE SMOOTH",
"471 1260 OFFCURVE",
"649 1291 OFFCURVE",
"662 1537 CURVE",
"577 1537 LINE",
"548 1361 OFFCURVE",
"454 1364 OFFCURVE",
"376 1364 CURVE SMOOTH",
"299 1364 OFFCURVE",
"204 1361 OFFCURVE",
"176 1537 CURVE",
"91 1537 LINE",
"104 1291 OFFCURVE",
"282 1260 OFFCURVE"
);
}
);
width = 744;
}
);
unicode = 02D8;
userData = {
org.robofab.postScriptHintData = {
};
};
},
{
glyphname = dotaccent;
layers = (
{
layerId = "366068B8-3C1B-4939-B859-022828941345";
name = Regular;
paths = (
{
closed = 1;
nodes = (
"99 1330 LINE",
"225 1330 LINE",
"225 1451 LINE",
"99 1451 LINE"
);
}
);
width = 339;
}
);
unicode = 02D9;
userData = {
org.robofab.postScriptHintData = {
};
};
},
{
glyphname = ring;
layers = (
{
layerId = "366068B8-3C1B-4939-B859-022828941345";
name = Regular;
paths = (
{
closed = 1;
nodes = (
"294 1272 CURVE SMOOTH",
"167 1272 OFFCURVE",
"128 1358 OFFCURVE",
"128 1431 CURVE SMOOTH",
"128 1504 OFFCURVE",
"167 1590 OFFCURVE",
"294 1590 CURVE SMOOTH",
"421 1590 OFFCURVE",
"461 1506 OFFCURVE",
"461 1432 CURVE SMOOTH",
"461 1358 OFFCURVE",
"421 1272 OFFCURVE"
);
},
{
closed = 1;
nodes = (
"294 1222 CURVE SMOOTH",
"451 1222 OFFCURVE",
"499 1343 OFFCURVE",
"499 1431 CURVE SMOOTH",
"499 1520 OFFCURVE",
"451 1640 OFFCURVE",
"294 1640 CURVE SMOOTH",
"137 1640 OFFCURVE",
"89 1519 OFFCURVE",
"89 1431 CURVE SMOOTH",
"89 1343 OFFCURVE",
"137 1222 OFFCURVE"
);
}
);
width = 587;
}
);
unicode = 02DA;
userData = {
org.robofab.postScriptHintData = {
};
};
},
{
glyphname = ogonek;
layers = (
{
layerId = "366068B8-3C1B-4939-B859-022828941345";
name = Regular;
paths = (
{
closed = 1;
nodes = (
"349 -291 CURVE",
"340 -259 LINE",
"196 -259 OFFCURVE",
"156 -258 OFFCURVE",
"156 -197 CURVE SMOOTH",
"156 -123 OFFCURVE",
"226 -59 OFFCURVE",
"311 -7 CURVE",
"276 -7 LINE",
"249 -5 OFFCURVE",
"119 -84 OFFCURVE",
"119 -187 CURVE SMOOTH",
"119 -273 OFFCURVE",
"159 -289 OFFCURVE"
);
}
);
width = 433;
}
);
unicode = 02DB;
userData = {
org.robofab.postScriptHintData = {
};
};
},
{
glyphname = tilde;
layers = (
{
layerId = "366068B8-3C1B-4939-B859-022828941345";
name = Regular;
paths = (
{
closed = 1;
nodes = (
"401 1341 CURVE SMOOTH",
"602 1341 OFFCURVE",
"592 1517 OFFCURVE",
"597 1485 CURVE",
"497 1485 LINE",
"487 1420 OFFCURVE",
"454 1410 OFFCURVE",
"418 1410 CURVE SMOOTH",
"373 1410 OFFCURVE",
"305 1493 OFFCURVE",
"282 1493 CURVE SMOOTH",
"108 1493 OFFCURVE",
"97 1352 OFFCURVE",
"94 1353 CURVE",
"187 1353 LINE",
"197 1417 OFFCURVE",
"225 1421 OFFCURVE",
"255 1421 CURVE SMOOTH",
"290 1421 OFFCURVE",
"342 1341 OFFCURVE"
);
}
);
width = 693;
}
);
unicode = 02DC;
userData = {
org.robofab.postScriptHintData = {
};
};
},
{
glyphname = hungarumlaut;
layers = (
{
layerId = "366068B8-3C1B-4939-B859-022828941345";
name = Regular;
paths = (
{
closed = 1;
nodes = (
"95 1409 LINE",
"92 1409 LINE",
"296 1668 LINE",
"187 1668 LINE"
);
},
{
closed = 1;
nodes = (
"290 1409 LINE",
"287 1409 LINE",
"490 1668 LINE",
"383 1668 LINE"
);
}
);
width = 517;
}
);
unicode = 02DD;
userData = {
org.robofab.postScriptHintData = {
};
};
},
{
glyphname = quoteleft;
layers = (
{
layerId = "366068B8-3C1B-4939-B859-022828941345";
name = Regular;
paths = (
{
closed = 1;
nodes = (
"104 1324 CURVE",
"242 1324 LINE",
"242 1453 LINE",
"114 1453 LINE",
"113 1477 OFFCURVE",
"86 1655 OFFCURVE",
"206 1702 CURVE",
"202 1709 LINE",
"150 1687 OFFCURVE",
"104 1671 OFFCURVE"
);
}
);
width = 336;
}
);
unicode = 2018;
userData = {
org.robofab.postScriptHintData = {
};
};
},
{
glyphname = quoteright;
layers = (
{
layerId = "366068B8-3C1B-4939-B859-022828941345";
name = Regular;
paths = (
{
closed = 1;
nodes = (
"128 1288 LINE",
"180 1310 OFFCURVE",
"227 1326 OFFCURVE",
"227 1673 CURVE",
"88 1673 LINE",
"88 1544 LINE",
"216 1544 LINE",
"218 1521 OFFCURVE",
"244 1342 OFFCURVE",
"125 1295 CURVE"
);
}
);
width = 322;
}
);
unicode = 2019;
userData = {
org.robofab.postScriptHintData = {
};
};
},
{
glyphname = minus;
layers = (
{
layerId = "366068B8-3C1B-4939-B859-022828941345";
name = Regular;
paths = (
{
closed = 1;
nodes = (
"93 432 LINE",
"552 432 LINE",
"552 501 LINE",
"93 501 LINE"
);
}
);
width = 621;
}
);
unicode = 2212;
userData = {
org.robofab.postScriptHintData = {
};
};
},
{
glyphname = quotedblright;
layers = (
{
layerId = "366068B8-3C1B-4939-B859-022828941345";
name = Regular;
paths = (
{
closed = 1;
nodes = (
"126 1288 LINE",
"179 1310 OFFCURVE",
"225 1326 OFFCURVE",
"225 1673 CURVE",
"87 1673 LINE",
"87 1544 LINE",
"215 1544 LINE",
"216 1521 OFFCURVE",
"243 1342 OFFCURVE",
"123 1295 CURVE"
);
},
{
closed = 1;
nodes = (
"382 1288 LINE",
"434 1310 OFFCURVE",
"481 1326 OFFCURVE",
"481 1673 CURVE",
"343 1673 LINE",
"343 1544 LINE",
"471 1544 LINE",
"472 1521 OFFCURVE",
"498 1342 OFFCURVE",
"379 1295 CURVE"
);
}
);
width = 570;
}
);
unicode = 201D;
userData = {
org.robofab.postScriptHintData = {
};
};
},
{
glyphname = tt;
layers = (
{
layerId = "366068B8-3C1B-4939-B859-022828941345";
name = Regular;
paths = (
{
closed = 1;
nodes = (
"372 -19 CURVE SMOOTH",
"398 -19 OFFCURVE",
"422 -14 OFFCURVE",
"467 -4 CURVE",
"467 33 LINE",
"440 27 OFFCURVE",
"410 24 OFFCURVE",
"383 24 CURVE SMOOTH",
"274 24 OFFCURVE",
"277 114 OFFCURVE",
"277 258 CURVE SMOOTH",
"277 1128 LINE",
"645 1128 LINE",
"645 214 LINE SMOOTH",
"645 92 OFFCURVE",
"657 -19 OFFCURVE",
"812 -19 CURVE SMOOTH",
"838 -19 OFFCURVE",
"862 -14 OFFCURVE",
"907 -4 CURVE",
"907 33 LINE",
"880 27 OFFCURVE",
"850 24 OFFCURVE",
"823 24 CURVE SMOOTH",
"714 24 OFFCURVE",
"717 114 OFFCURVE",
"717 258 CURVE SMOOTH",
"717 1128 LINE",
"921 1128 LINE",
"921 1153 LINE",
"717 1153 LINE",
"717 1576 LINE",
"645 1576 LINE",
"645 1153 LINE",
"277 1153 LINE",
"277 1576 LINE",
"205 1576 LINE",
"205 1153 LINE",
"14 1153 LINE",
"14 1128 LINE",
"205 1128 LINE",
"205 214 LINE SMOOTH",
"205 92 OFFCURVE",
"217 -19 OFFCURVE"
);
}
);
width = 1006;
}
);
userData = {
org.robofab.postScriptHintData = {
};
};
},
{
glyphname = quotesinglbase;
layers = (
{
layerId = "366068B8-3C1B-4939-B859-022828941345";
name = Regular;
paths = (
{
closed = 1;
nodes = (
"128 -256 LINE",
"180 -234 OFFCURVE",
"227 -218 OFFCURVE",
"227 129 CURVE",
"88 129 LINE",
"88 0 LINE",
"216 0 LINE",
"218 -23 OFFCURVE",
"244 -202 OFFCURVE",
"125 -249 CURVE"
);
}
);
width = 322;
}
);
unicode = 201A;
userData = {
org.robofab.postScriptHintData = {
};
};
},
{
glyphname = foundryicon;
layers = (
{
layerId = "366068B8-3C1B-4939-B859-022828941345";
name = Regular;
paths = (
{
closed = 1;
nodes = (
"168 277 LINE",
"627 604 LINE",
"1096 277 LINE",
"926 819 LINE",
"1387 1168 LINE",
"815 1168 LINE",
"627 1710 LINE",
"449 1168 LINE",
"-123 1157 LINE",
"336 819 LINE"
);
}
);
width = 1254;
}
);
userData = {
org.robofab.postScriptHintData = {
};
};
},
{
glyphname = Euro;
layers = (
{
layerId = "366068B8-3C1B-4939-B859-022828941345";
name = Regular;
paths = (
{
closed = 1;
nodes = (
"633 -27 CURVE SMOOTH",
"934 -27 OFFCURVE",
"1025 184 OFFCURVE",
"1025 470 CURVE SMOOTH",
"1025 586 LINE",
"936 586 LINE",
"936 421 LINE SMOOTH",
"936 166 OFFCURVE",
"854 36 OFFCURVE",
"631 36 CURVE SMOOTH",
"375 36 OFFCURVE",
"292 197 OFFCURVE",
"294 446 CURVE SMOOTH",
"294 771 LINE",
"593 771 LINE",
"593 815 LINE",
"296 815 LINE",
"296 949 LINE",
"593 949 LINE",
"593 993 LINE",
"296 993 LINE",
"296 1344 LINE SMOOTH",
"295 1591 OFFCURVE",
"384 1748 OFFCURVE",
"634 1748 CURVE SMOOTH",
"862 1748 OFFCURVE",
"940 1603 OFFCURVE",
"939 1345 CURVE SMOOTH",
"939 1200 LINE",
"1027 1200 LINE",
"1027 1297 LINE SMOOTH",
"1028 1587 OFFCURVE",
"933 1813 OFFCURVE",
"636 1813 CURVE SMOOTH",
"304 1813 OFFCURVE",
"192 1587 OFFCURVE",
"198 1295 CURVE SMOOTH",
"198 993 LINE",
"55 993 LINE",
"55 949 LINE",
"200 949 LINE",
"200 815 LINE",
"55 815 LINE",
"55 771 LINE",
"199 771 LINE",
"199 496 LINE SMOOTH",
"194 210 OFFCURVE",
"291 -27 OFFCURVE"
);
}
);
width = 1120;
}
);
unicode = 20AC;
userData = {
org.robofab.postScriptHintData = {
};
};
},
{
glyphname = uni030F;
layers = (
{
layerId = "366068B8-3C1B-4939-B859-022828941345";
name = Regular;
paths = (
{
closed = 1;
nodes = (
"253 1409 LINE",
"249 1409 LINE",
"157 1668 LINE",
"49 1668 LINE"
);
},
{
closed = 1;
nodes = (
"447 1409 LINE",
"445 1409 LINE",
"352 1668 LINE",
"243 1668 LINE"
);
}
);
width = 532;
}
);
unicode = 030F;
userData = {
org.robofab.postScriptHintData = {
};
};
},
{
glyphname = kgreenlandic;
layers = (
{
layerId = "366068B8-3C1B-4939-B859-022828941345";
name = Regular;
paths = (
{
closed = 1;
nodes = (
"129 0 LINE",
"200 0 LINE",
"200 410 LINE",
"386 668 LINE",
"663 0 LINE",
"750 0 LINE",
"443 706 LINE",
"749 1153 LINE",
"645 1153 LINE",
"200 481 LINE",
"200 1153 LINE",
"129 1153 LINE"
);
}
);
width = 825;
}
);
unicode = 0138;
userData = {
org.robofab.postScriptHintData = {
};
};
},
{
glyphname = product;
layers = (
{
layerId = "366068B8-3C1B-4939-B859-022828941345";
name = Regular;
paths = (
{
closed = 1;
nodes = (
"156 0 LINE",
"310 0 LINE",
"310 1600 LINE",
"860 1600 LINE",
"860 0 LINE",
"1014 0 LINE",
"1014 1683 LINE",
"156 1683 LINE"
);
}
);
width = 1164;
}
);
unicode = 220F;
userData = {
org.robofab.postScriptHintData = {
};
};
},
{
glyphname = uniFB04;
layers = (
{
layerId = "366068B8-3C1B-4939-B859-022828941345";
name = Regular;
paths = (
{
closed = 1;
nodes = (
"192 0 LINE",
"264 0 LINE",
"264 1128 LINE",
"621 1128 LINE",
"621 0 LINE",
"692 0 LINE",
"692 1128 LINE",
"977 1128 LINE",
"977 1153 LINE",
"692 1153 LINE",
"692 1383 LINE SMOOTH",
"692 1543 OFFCURVE",
"752 1570 OFFCURVE",
"901 1570 CURVE SMOOTH",
"952 1570 OFFCURVE",
"1107 1557 OFFCURVE",
"1086 1558 CURVE",
"1086 0 LINE",
"1158 0 LINE",
"1158 1563 LINE",
"1275 1553 OFFCURVE",
"1184 1619 OFFCURVE",
"969 1619 CURVE SMOOTH",
"774 1619 OFFCURVE",
"618 1636 OFFCURVE",
"620 1381 CURVE SMOOTH",
"620 1385 OFFCURVE",
"621 1149 OFFCURVE",
"621 1153 CURVE",
"264 1153 LINE",
"264 1383 LINE SMOOTH",
"264 1448 OFFCURVE",
"246 1562 OFFCURVE",
"394 1562 CURVE SMOOTH",
"405 1562 OFFCURVE",
"445 1560 OFFCURVE",
"462 1556 CURVE",
"462 1605 LINE",
"410 1617 OFFCURVE",
"396 1617 OFFCURVE",
"378 1617 CURVE SMOOTH",
"150 1617 OFFCURVE",
"189 1378 OFFCURVE",
"192 1324 CURVE SMOOTH",
"192 1328 OFFCURVE",
"192 1149 OFFCURVE",
"192 1153 CURVE",
"-13 1153 LINE",
"-13 1128 LINE",
"192 1128 LINE"
);
}
);
width = 1325;
}
);
unicode = FB04;
userData = {
org.robofab.postScriptHintData = {
};
};
},
{
glyphname = uniFB01;
layers = (
{
layerId = "366068B8-3C1B-4939-B859-022828941345";
name = Regular;
paths = (
{
closed = 1;
nodes = (
"192 0 LINE",
"264 0 LINE",
"264 1128 LINE",
"629 1128 LINE",
"629 0 LINE",
"700 0 LINE",
"700 1153 LINE",
"264 1153 LINE",
"264 1383 LINE SMOOTH",
"264 1448 OFFCURVE",
"246 1562 OFFCURVE",
"394 1562 CURVE SMOOTH",
"405 1562 OFFCURVE",
"445 1560 OFFCURVE",
"462 1556 CURVE",
"462 1605 LINE",
"410 1617 OFFCURVE",
"396 1617 OFFCURVE",
"378 1617 CURVE SMOOTH",
"150 1617 OFFCURVE",
"189 1378 OFFCURVE",
"192 1324 CURVE SMOOTH",
"192 1328 OFFCURVE",
"192 1149 OFFCURVE",
"192 1153 CURVE",
"-13 1153 LINE",
"-13 1128 LINE",
"192 1128 LINE"
);
},
{
closed = 1;
nodes = (
"629 1494 LINE",
"700 1494 LINE",
"700 1616 LINE",
"629 1616 LINE"
);
}
);
width = 834;
}
);
unicode = FB01;
userData = {
org.robofab.postScriptHintData = {
};
};
},
{
glyphname = uniFB00;
layers = (
{
layerId = "366068B8-3C1B-4939-B859-022828941345";
name = Regular;
paths = (
{
closed = 1;
nodes = (
"192 0 LINE",
"264 0 LINE",
"264 1128 LINE",
"638 1128 LINE",
"638 0 LINE",
"709 0 LINE",
"709 1128 LINE",
"913 1128 LINE",
"913 1153 LINE",
"709 1153 LINE",
"709 1383 LINE SMOOTH",
"709 1448 OFFCURVE",
"692 1562 OFFCURVE",
"840 1562 CURVE SMOOTH",
"850 1562 OFFCURVE",
"891 1560 OFFCURVE",
"908 1556 CURVE",
"908 1605 LINE",
"855 1617 OFFCURVE",
"842 1617 OFFCURVE",
"824 1617 CURVE SMOOTH",
"596 1617 OFFCURVE",
"635 1378 OFFCURVE",
"637 1324 CURVE SMOOTH",
"637 1328 OFFCURVE",
"638 1149 OFFCURVE",
"638 1153 CURVE",
"264 1153 LINE",
"264 1383 LINE SMOOTH",
"264 1448 OFFCURVE",
"246 1562 OFFCURVE",
"394 1562 CURVE SMOOTH",
"405 1562 OFFCURVE",
"445 1560 OFFCURVE",
"462 1556 CURVE",
"462 1605 LINE",
"410 1617 OFFCURVE",
"396 1617 OFFCURVE",
"378 1617 CURVE SMOOTH",
"150 1617 OFFCURVE",
"189 1378 OFFCURVE",
"192 1324 CURVE SMOOTH",
"192 1328 OFFCURVE",
"192 1149 OFFCURVE",
"192 1153 CURVE",
"-13 1153 LINE",
"-13 1128 LINE",
"192 1128 LINE"
);
}
);
width = 924;
}
);
unicode = FB00;
userData = {
org.robofab.postScriptHintData = {
};
};
},
{
glyphname = uniFB03;
layers = (
{
layerId = "366068B8-3C1B-4939-B859-022828941345";
name = Regular;
paths = (
{
closed = 1;
nodes = (
"192 0 LINE",
"264 0 LINE",
"264 1128 LINE",
"638 1128 LINE",
"638 0 LINE",
"709 0 LINE",
"709 1128 LINE",
"1065 1128 LINE",
"1065 0 LINE",
"1136 0 LINE",
"1136 1153 LINE",
"709 1153 LINE",
"709 1383 LINE SMOOTH",
"709 1448 OFFCURVE",
"692 1562 OFFCURVE",
"840 1562 CURVE SMOOTH",
"850 1562 OFFCURVE",
"891 1560 OFFCURVE",
"908 1556 CURVE",
"908 1605 LINE",
"855 1617 OFFCURVE",
"842 1617 OFFCURVE",
"824 1617 CURVE SMOOTH",
"596 1617 OFFCURVE",
"635 1378 OFFCURVE",
"637 1324 CURVE SMOOTH",
"637 1328 OFFCURVE",
"638 1149 OFFCURVE",
"638 1153 CURVE",
"264 1153 LINE",
"264 1383 LINE SMOOTH",
"264 1448 OFFCURVE",
"246 1562 OFFCURVE",
"394 1562 CURVE SMOOTH",
"405 1562 OFFCURVE",
"445 1560 OFFCURVE",
"462 1556 CURVE",
"462 1605 LINE",
"410 1617 OFFCURVE",
"396 1617 OFFCURVE",
"378 1617 CURVE SMOOTH",
"150 1617 OFFCURVE",
"189 1378 OFFCURVE",
"192 1324 CURVE SMOOTH",
"192 1328 OFFCURVE",
"192 1149 OFFCURVE",
"192 1153 CURVE",
"-13 1153 LINE",
"-13 1128 LINE",
"192 1128 LINE"
);
},
{
closed = 1;
nodes = (
"1065 1494 LINE",
"1136 1494 LINE",
"1136 1616 LINE",
"1065 1616 LINE"
);
}
);
width = 1270;
}
);
unicode = FB03;
userData = {
org.robofab.postScriptHintData = {
};
};
},
{
glyphname = uniFB02;
layers = (
{
layerId = "366068B8-3C1B-4939-B859-022828941345";
name = Regular;
paths = (
{
closed = 1;
nodes = (
"192 0 LINE",
"264 0 LINE",
"264 1128 LINE",
"468 1128 LINE",
"468 1153 LINE",
"264 1153 LINE",
"264 1383 LINE SMOOTH",
"264 1543 OFFCURVE",
"331 1570 OFFCURVE",
"498 1570 CURVE SMOOTH",
"544 1570 OFFCURVE",
"682 1557 OFFCURVE",
"658 1558 CURVE",
"658 0 LINE",
"729 0 LINE",
"729 1558 LINE",
"847 1553 OFFCURVE",
"761 1619 OFFCURVE",
"549 1619 CURVE SMOOTH",
"347 1619 OFFCURVE",
"189 1636 OFFCURVE",
"192 1381 CURVE SMOOTH",
"192 1385 OFFCURVE",
"192 1149 OFFCURVE",
"192 1153 CURVE",
"-13 1153 LINE",
"-13 1128 LINE",
"192 1128 LINE"
);
}
);
width = 896;
}
);
unicode = FB02;
userData = {
org.robofab.postScriptHintData = {
};
};
},
{
glyphname = dcroat;
layers = (
{
layerId = "366068B8-3C1B-4939-B859-022828941345";
name = Regular;
paths = (
{
closed = 1;
nodes = (
"360 -26 CURVE SMOOTH",
"428 -26 OFFCURVE",
"531 -3 OFFCURVE",
"608 119 CURVE",
"608 0 LINE",
"680 0 LINE",
"680 1355 LINE",
"802 1355 LINE",
"802 1420 LINE",
"680 1420 LINE",
"680 1688 LINE",
"608 1688 LINE",
"608 1420 LINE",
"474 1420 LINE",
"474 1355 LINE",
"608 1355 LINE",
"608 1029 LINE",
"539 1135 OFFCURVE",
"451 1179 OFFCURVE",
"371 1179 CURVE SMOOTH",
"264 1179 OFFCURVE",
"110 1177 OFFCURVE",
"110 481 CURVE SMOOTH",
"110 670 LINE SMOOTH",
"110 -4 OFFCURVE",
"266 -26 OFFCURVE"
);
},
{
closed = 1;
nodes = (
"370 25 CURVE SMOOTH",
"284 25 OFFCURVE",
"182 20 OFFCURVE",
"182 640 CURVE SMOOTH",
"182 491 LINE SMOOTH",
"182 1118 OFFCURVE",
"280 1128 OFFCURVE",
"363 1128 CURVE SMOOTH",
"447 1128 OFFCURVE",
"528 1078 OFFCURVE",
"608 991 CURVE",
"608 166 LINE",
"532 76 OFFCURVE",
"440 25 OFFCURVE"
);
}
);
width = 847;
}
);
unicode = 0111;
userData = {
org.robofab.postScriptHintData = {
};
};
},
{
glyphname = endash;
layers = (
{
layerId = "366068B8-3C1B-4939-B859-022828941345";
name = Regular;
paths = (
{
closed = 1;
nodes = (
"165 446 LINE",
"762 446 LINE",
"762 515 LINE",
"165 515 LINE"
);
}
);
width = 904;
}
);
unicode = 2013;
userData = {
org.robofab.postScriptHintData = {
};
};
},
{
glyphname = uni0237;
layers = (
{
layerId = "366068B8-3C1B-4939-B859-022828941345";
name = Regular;
paths = (
{
closed = 1;
nodes = (
"-83 -324 CURVE SMOOTH",
"60 -324 OFFCURVE",
"154 -268 OFFCURVE",
"154 -76 CURVE SMOOTH",
"154 1153 LINE",
"81 1153 LINE",
"81 -49 LINE SMOOTH",
"81 -115 OFFCURVE",
"87 -269 OFFCURVE",
"-80 -269 CURVE SMOOTH",
"-82 -269 OFFCURVE",
"-102 -271 OFFCURVE",
"-122 -273 CURVE",
"-122 -324 LINE",
"-103 -326 OFFCURVE",
"-76 -324 OFFCURVE"
);
}
);
width = 313;
}
);
unicode = 0237;
userData = {
org.robofab.postScriptHintData = {
};
};
},
{
glyphname = Lslash;
layers = (
{
layerId = "366068B8-3C1B-4939-B859-022828941345";
name = Regular;
paths = (
{
closed = 1;
nodes = (
"219 0 LINE",
"815 0 LINE",
"815 68 LINE",
"282 68 LINE",
"282 871 LINE",
"530 966 LINE",
"530 1052 LINE",
"282 957 LINE",
"282 1688 LINE",
"219 1688 LINE",
"219 934 LINE",
"55 871 LINE",
"55 785 LINE",
"219 847 LINE"
);
}
);
width = 815;
}
);
unicode = 0141;
userData = {
org.robofab.postScriptHintData = {
};
};
},
{
glyphname = guilsinglright;
layers = (
{
layerId = "366068B8-3C1B-4939-B859-022828941345";
name = Regular;
paths = (
{
closed = 1;
nodes = (
"78 149 LINE",
"440 576 LINE",
"440 704 LINE",
"78 1131 LINE",
"78 981 LINE",
"362 641 LINE",
"78 299 LINE"
);
}
);
width = 545;
}
);
unicode = 203A;
userData = {
org.robofab.postScriptHintData = {
};
};
},
{
glyphname = uni2074;
layers = (
{
layerId = "366068B8-3C1B-4939-B859-022828941345";
name = Regular;
paths = (
{
closed = 1;
nodes = (
"422 592 LINE",
"522 592 LINE",
"522 876 LINE",
"658 876 LINE",
"658 955 LINE",
"522 955 LINE",
"522 1780 LINE",
"306 1780 LINE",
"26 949 LINE",
"26 876 LINE",
"422 876 LINE"
);
},
{
closed = 1;
nodes = (
"134 955 LINE",
"421 1783 LINE",
"422 955 LINE"
);
}
);
width = 698;
}
);
unicode = 2074;
userData = {
org.robofab.postScriptHintData = {
};
};
},
{
glyphname = uc_main_stem;
layers = (
{
layerId = "366068B8-3C1B-4939-B859-022828941345";
name = Regular;
paths = (
{
closed = 1;
nodes = (
"162 0 LINE",
"226 0 LINE",
"226 1688 LINE",
"162 1688 LINE"
);
}
);
width = 388;
}
);
userData = {
com.typemytype.robofont.layerData = {
};
org.robofab.postScriptHintData = {
};
};
},
{
glyphname = quotedblleft;
layers = (
{
layerId = "366068B8-3C1B-4939-B859-022828941345";
name = Regular;
paths = (
{
closed = 1;
nodes = (
"103 1324 CURVE",
"240 1324 LINE",
"240 1453 LINE",
"112 1453 LINE",
"111 1477 OFFCURVE",
"86 1655 OFFCURVE",
"204 1702 CURVE",
"201 1709 LINE",
"149 1687 OFFCURVE",
"103 1671 OFFCURVE"
);
},
{
closed = 1;
nodes = (
"358 1324 CURVE",
"496 1324 LINE",
"496 1453 LINE",
"368 1453 LINE",
"367 1477 OFFCURVE",
"342 1655 OFFCURVE",
"460 1702 CURVE",
"456 1709 LINE",
"404 1687 OFFCURVE",
"358 1671 OFFCURVE"
);
}
);
width = 587;
}
);
unicode = 201C;
userData = {
org.robofab.postScriptHintData = {
};
};
},
{
glyphname = hbar;
layers = (
{
layerId = "366068B8-3C1B-4939-B859-022828941345";
name = Regular;
paths = (
{
closed = 1;
nodes = (
"177 0 LINE",
"250 0 LINE",
"250 987 LINE",
"326 1057 OFFCURVE",
"422 1091 OFFCURVE",
"496 1091 CURVE SMOOTH",
"549 1091 OFFCURVE",
"649 1068 OFFCURVE",
"649 922 CURVE SMOOTH",
"649 0 LINE",
"723 0 LINE",
"723 896 LINE SMOOTH",
"723 1114 OFFCURVE",
"586 1179 OFFCURVE",
"487 1179 CURVE SMOOTH",
"406 1179 OFFCURVE",
"313 1143 OFFCURVE",
"248 1032 CURVE",
"248 1379 LINE",
"369 1379 LINE",
"369 1437 LINE",
"248 1437 LINE",
"248 1688 LINE",
"177 1688 LINE",
"177 1437 LINE",
"44 1437 LINE",
"44 1379 LINE",
"177 1379 LINE"
);
}
);
width = 882;
}
);
unicode = 0127;
userData = {
org.robofab.postScriptHintData = {
};
};
},
{
glyphname = trademark;
layers = (
{
layerId = "366068B8-3C1B-4939-B859-022828941345";
name = Regular;
paths = (
{
closed = 1;
nodes = (
"600 686 LINE",
"657 686 LINE",
"657 1467 LINE",
"883 686 LINE",
"907 686 LINE",
"1135 1481 LINE",
"1135 686 LINE",
"1194 686 LINE",
"1194 1409 LINE",
"1083 1409 LINE",
"896 833 LINE",
"730 1409 LINE",
"600 1409 LINE"
);
},
{
closed = 1;
nodes = (
"174 686 LINE",
"243 686 LINE",
"243 1364 LINE",
"407 1364 LINE",
"407 1409 LINE",
"11 1409 LINE",
"11 1364 LINE",
"174 1364 LINE"
);
}
);
width = 1048;
}
);
unicode = 2122;
userData = {
org.robofab.postScriptHintData = {
};
};
},
{
glyphname = lslash;
layers = (
{
layerId = "366068B8-3C1B-4939-B859-022828941345";
name = Regular;
paths = (
{
closed = 1;
nodes = (
"191 0 LINE",
"263 0 LINE",
"263 901 LINE",
"378 966 LINE",
"378 1052 LINE",
"263 988 LINE",
"263 1688 LINE",
"191 1688 LINE",
"191 938 LINE",
"69 871 LINE",
"69 785 LINE",
"191 852 LINE"
);
}
);
width = 488;
}
);
unicode = 0142;
userData = {
org.robofab.postScriptHintData = {
};
};
},
{
glyphname = uni0326;
layers = (
{
layerId = "366068B8-3C1B-4939-B859-022828941345";
name = Regular;
paths = (
{
closed = 1;
nodes = (
"227 -473 LINE",
"227 -472 OFFCURVE",
"224 -470 OFFCURVE",
"224 -468 CURVE SMOOTH",
"305 -434 OFFCURVE",
"313 -270 OFFCURVE",
"313 -91 CURVE",
"186 -91 LINE",
"186 -211 LINE",
"322 -211 LINE",
"322 -243 OFFCURVE",
"306 -418 OFFCURVE",
"205 -464 CURVE"
);
}
);
width = 500;
}
);
unicode = 0326;
userData = {
org.robofab.postScriptHintData = {
};
};
},
{
glyphname = emdash;
layers = (
{
layerId = "366068B8-3C1B-4939-B859-022828941345";
name = Regular;
paths = (
{
closed = 1;
nodes = (
"165 446 LINE",
"1205 446 LINE",
"1205 515 LINE",
"165 515 LINE"
);
}
);
width = 1348;
}
);
unicode = 2014;
userData = {
org.robofab.postScriptHintData = {
};
};
},
{
glyphname = Hbar;
layers = (
{
layerId = "366068B8-3C1B-4939-B859-022828941345";
name = Regular;
paths = (
{
closed = 1;
nodes = (
"158 0 LINE",
"221 0 LINE",
"221 850 LINE",
"864 850 LINE",
"864 0 LINE",
"926 0 LINE",
"926 1329 LINE",
"941 1329 LINE",
"941 1414 LINE",
"926 1414 LINE",
"926 1688 LINE",
"864 1688 LINE",
"864 1414 LINE",
"221 1414 LINE",
"221 1688 LINE",
"158 1688 LINE",
"158 1414 LINE",
"144 1414 LINE",
"144 1329 LINE",
"158 1329 LINE"
);
},
{
closed = 1;
nodes = (
"221 892 LINE",
"221 1329 LINE",
"864 1329 LINE",
"864 892 LINE"
);
}
);
width = 1090;
}
);
unicode = 0126;
userData = {
org.robofab.postScriptHintData = {
};
};
},
{
glyphname = OE;
layers = (
{
layerId = "366068B8-3C1B-4939-B859-022828941345";
name = Regular;
paths = (
{
closed = 1;
nodes = (
"530 0 CURVE SMOOTH",
"1406 0 LINE",
"1406 68 LINE",
"932 68 LINE",
"932 844 LINE",
"1272 844 LINE",
"1272 899 LINE",
"932 899 LINE",
"932 1620 LINE",
"1406 1620 LINE",
"1406 1688 LINE",
"530 1688 LINE SMOOTH",
"225 1689 OFFCURVE",
"128 1490 OFFCURVE",
"128 1237 CURVE SMOOTH",
"128 453 LINE SMOOTH",
"128 213 OFFCURVE",
"212 0 OFFCURVE"
);
},
{
closed = 1;
nodes = (
"530 65 LINE",
"271 68 OFFCURVE",
"191 225 OFFCURVE",
"191 443 CURVE SMOOTH",
"191 1247 LINE SMOOTH",
"191 1472 OFFCURVE",
"270 1625 OFFCURVE",
"530 1625 CURVE SMOOTH",
"870 1625 LINE",
"870 65 LINE"
);
}
);
width = 1475;
}
);
unicode = 0152;
userData = {
org.robofab.postScriptHintData = {
};
};
},
{
glyphname = uni00B3;
layers = (
{
layerId = "366068B8-3C1B-4939-B859-022828941345";
name = Regular;
paths = (
{
closed = 1;
nodes = (
"371 561 CURVE SMOOTH",
"564 561 OFFCURVE",
"643 710 OFFCURVE",
"643 910 CURVE SMOOTH",
"643 997 OFFCURVE",
"566 1157 OFFCURVE",
"474 1219 CURVE",
"567 1265 OFFCURVE",
"643 1388 OFFCURVE",
"643 1489 CURVE SMOOTH",
"643 1651 OFFCURVE",
"568 1812 OFFCURVE",
"385 1812 CURVE SMOOTH",
"175 1812 OFFCURVE",
"91 1658 OFFCURVE",
"91 1407 CURVE",
"182 1407 LINE",
"182 1584 OFFCURVE",
"214 1727 OFFCURVE",
"386 1727 CURVE SMOOTH",
"501 1727 OFFCURVE",
"552 1632 OFFCURVE",
"552 1473 CURVE SMOOTH",
"552 1405 OFFCURVE",
"494 1289 OFFCURVE",
"378 1245 CURVE",
"378 1192 LINE",
"478 1163 OFFCURVE",
"552 981 OFFCURVE",
"552 911 CURVE SMOOTH",
"552 725 OFFCURVE",
"496 645 OFFCURVE",
"372 645 CURVE SMOOTH",
"213 645 OFFCURVE",
"182 787 OFFCURVE",
"182 963 CURVE",
"91 963 LINE",
"91 715 OFFCURVE",
"170 561 OFFCURVE"
);
}
);
width = 745;
}
);
unicode = 00B3;
userData = {
org.robofab.postScriptHintData = {
};
};
},
{
glyphname = uni00B2;
layers = (
{
layerId = "366068B8-3C1B-4939-B859-022828941345";
name = Regular;
paths = (
{
closed = 1;
nodes = (
"113 587 LINE",
"664 587 LINE",
"664 678 LINE",
"253 678 LINE",
"236 656 OFFCURVE",
"580 1200 OFFCURVE",
"552 1161 CURVE SMOOTH",
"600 1241 OFFCURVE",
"684 1392 OFFCURVE",
"684 1499 CURVE SMOOTH",
"684 1701 OFFCURVE",
"607 1838 OFFCURVE",
"419 1838 CURVE SMOOTH",
"201 1838 OFFCURVE",
"115 1682 OFFCURVE",
"115 1430 CURVE",
"223 1430 LINE",
"223 1607 OFFCURVE",
"253 1751 OFFCURVE",
"421 1751 CURVE SMOOTH",
"525 1751 OFFCURVE",
"576 1656 OFFCURVE",
"576 1498 CURVE SMOOTH",
"576 1402 OFFCURVE",
"489 1259 OFFCURVE",
"442 1184 CURVE",
"479 1242 OFFCURVE",
"101 651 OFFCURVE",
"113 667 CURVE"
);
}
);
width = 793;
}
);
unicode = 00B2;
userData = {
org.robofab.postScriptHintData = {
};
};
},
{
glyphname = uni00B9;
layers = (
{
layerId = "366068B8-3C1B-4939-B859-022828941345";
name = Regular;
paths = (
{
closed = 1;
nodes = (
"262 563 LINE",
"361 563 LINE",
"361 1779 LINE",
"274 1779 LINE",
"216 1669 OFFCURVE",
"88 1606 OFFCURVE",
"43 1596 CURVE",
"43 1482 LINE",
"107 1497 OFFCURVE",
"178 1551 OFFCURVE",
"262 1609 CURVE"
);
}
);
width = 505;
}
);
unicode = 00B9;
userData = {
org.robofab.postScriptHintData = {
};
};
},
{
glyphname = quotesingle;
layers = (
{
layerId = "366068B8-3C1B-4939-B859-022828941345";
name = Regular;
paths = (
{
closed = 1;
nodes = (
"175 1495 LINE",
"201 1495 LINE",
"238 1711 OFFCURVE",
"206 1461 OFFCURVE",
"244 1680 CURVE",
"132 1680 LINE"
);
}
);
width = 380;
}
);
unicode = 0027;
userData = {
org.robofab.postScriptHintData = {
};
};
},
{
glyphname = oe;
layers = (
{
layerId = "366068B8-3C1B-4939-B859-022828941345";
name = Regular;
paths = (
{
closed = 1;
nodes = (
"406 -26 CURVE SMOOTH",
"539 -26 OFFCURVE",
"608 23 OFFCURVE",
"642 100 CURVE",
"687 3 OFFCURVE",
"769 -26 OFFCURVE",
"902 -26 CURVE SMOOTH",
"1122 -26 OFFCURVE",
"1127 166 OFFCURVE",
"1155 353 CURVE SMOOTH",
"1156 362 OFFCURVE",
"1157 308 OFFCURVE",
"1158 317 CURVE",
"1101 317 LINE",
"1101 318 OFFCURVE",
"1099 327 OFFCURVE",
"1099 337 CURVE SMOOTH",
"1090 65 OFFCURVE",
"985 6 OFFCURVE",
"903 6 CURVE SMOOTH",
"769 6 OFFCURVE",
"676 46 OFFCURVE",
"676 487 CURVE SMOOTH",
"676 630 LINE",
"1162 630 LINE",
"1165 698 OFFCURVE",
"1165 621 OFFCURVE",
"1165 691 CURVE SMOOTH",
"1165 1037 OFFCURVE",
"1092 1179 OFFCURVE",
"896 1179 CURVE SMOOTH",
"790 1179 OFFCURVE",
"698 1156 OFFCURVE",
"642 1041 CURVE",
"602 1125 OFFCURVE",
"529 1179 OFFCURVE",
"398 1179 CURVE SMOOTH",
"69 1179 OFFCURVE",
"119 803 OFFCURVE",
"119 519 CURVE SMOOTH",
"119 664 LINE SMOOTH",
"119 330 OFFCURVE",
"43 -26 OFFCURVE"
);
},
{
closed = 1;
nodes = (
"398 6 CURVE SMOOTH",
"227 6 OFFCURVE",
"190 168 OFFCURVE",
"190 661 CURVE SMOOTH",
"190 490 LINE SMOOTH",
"190 975 OFFCURVE",
"214 1150 OFFCURVE",
"398 1150 CURVE SMOOTH",
"579 1150 OFFCURVE",
"603 973 OFFCURVE",
"603 490 CURVE SMOOTH",
"603 664 LINE SMOOTH",
"603 172 OFFCURVE",
"570 6 OFFCURVE"
);
},
{
closed = 1;
nodes = (
"677 660 LINE",
"677 673 OFFCURVE",
"677 616 OFFCURVE",
"677 628 CURVE SMOOTH",
"678 965 OFFCURVE",
"687 1150 OFFCURVE",
"914 1150 CURVE SMOOTH",
"1111 1150 OFFCURVE",
"1093 861 OFFCURVE",
"1093 628 CURVE SMOOTH",
"1093 616 OFFCURVE",
"1094 672 OFFCURVE",
"1094 660 CURVE"
);
}
);
width = 1288;
}
);
unicode = 0153;
userData = {
org.robofab.postScriptHintData = {
};
};
},
{
glyphname = guilsinglleft;
layers = (
{
layerId = "366068B8-3C1B-4939-B859-022828941345";
name = Regular;
paths = (
{
closed = 1;
nodes = (
"440 149 LINE",
"440 299 LINE",
"156 641 LINE",
"440 981 LINE",
"440 1131 LINE",
"78 704 LINE",
"78 576 LINE"
);
}
);
width = 537;
}
);
unicode = 2039;
userData = {
org.robofab.postScriptHintData = {
};
};
},
{
glyphname = dagger;
layers = (
{
layerId = "366068B8-3C1B-4939-B859-022828941345";
name = Regular;
paths = (
{
closed = 1;
nodes = (
"233 0 LINE",
"293 0 LINE",
"293 1072 LINE",
"530 1072 LINE",
"530 1082 LINE",
"293 1082 LINE",
"293 1427 LINE",
"233 1427 LINE",
"233 1082 LINE",
"-8 1082 LINE",
"-8 1072 LINE",
"233 1072 LINE"
);
}
);
width = 503;
}
);
unicode = 2020;
userData = {
org.robofab.postScriptHintData = {
};
};
},
{
glyphname = fraction;
layers = (
{
layerId = "366068B8-3C1B-4939-B859-022828941345";
name = Regular;
paths = (
{
closed = 1;
nodes = (
"-53 0 LINE",
"69 0 LINE",
"745 1687 LINE",
"623 1687 LINE"
);
}
);
width = 665;
}
);
unicode = 2044;
userData = {
org.robofab.postScriptHintData = {
};
};
},
{
glyphname = uni00AD;
layers = (
{
layerId = "366068B8-3C1B-4939-B859-022828941345";
name = Regular;
paths = (
{
closed = 1;
nodes = (
"106 454 LINE",
"505 454 LINE",
"505 510 LINE",
"106 510 LINE"
);
}
);
width = 598;
}
);
unicode = 00AD;
userData = {
org.robofab.postScriptHintData = {
};
};
},
{
glyphname = quotedblbase;
layers = (
{
layerId = "366068B8-3C1B-4939-B859-022828941345";
name = Regular;
paths = (
{
closed = 1;
nodes = (
"126 -256 LINE",
"179 -234 OFFCURVE",
"225 -218 OFFCURVE",
"225 129 CURVE",
"87 129 LINE",
"87 0 LINE",
"215 0 LINE",
"216 -23 OFFCURVE",
"243 -202 OFFCURVE",
"123 -249 CURVE"
);
},
{
closed = 1;
nodes = (
"382 -256 LINE",
"434 -234 OFFCURVE",
"481 -218 OFFCURVE",
"481 129 CURVE",
"343 129 LINE",
"343 0 LINE",
"471 0 LINE",
"472 -23 OFFCURVE",
"498 -202 OFFCURVE",
"379 -249 CURVE"
);
}
);
width = 570;
}
);
unicode = 201E;
userData = {
org.robofab.postScriptHintData = {
};
};
},
{
glyphname = uni0311;
layers = (
{
layerId = "366068B8-3C1B-4939-B859-022828941345";
name = Regular;
paths = (
{
closed = 1;
nodes = (
"88 1260 CURVE",
"173 1260 LINE",
"202 1436 OFFCURVE",
"296 1433 OFFCURVE",
"374 1433 CURVE SMOOTH",
"451 1433 OFFCURVE",
"545 1436 OFFCURVE",
"574 1260 CURVE",
"659 1260 LINE",
"646 1506 OFFCURVE",
"468 1537 OFFCURVE",
"374 1537 CURVE SMOOTH",
"279 1537 OFFCURVE",
"101 1506 OFFCURVE"
);
}
);
width = 741;
}
);
unicode = 0311;
userData = {
org.robofab.postScriptHintData = {
};
};
},
{
glyphname = daggerdbl;
layers = (
{
layerId = "366068B8-3C1B-4939-B859-022828941345";
name = Regular;
paths = (
{
closed = 1;
nodes = (
"233 0 LINE",
"293 0 LINE",
"293 448 LINE",
"530 448 LINE",
"530 500 LINE",
"293 500 LINE",
"293 1148 LINE",
"530 1148 LINE",
"530 1187 LINE",
"293 1187 LINE",
"293 1427 LINE",
"233 1427 LINE",
"233 1187 LINE",
"-6 1187 LINE",
"-6 1148 LINE",
"233 1148 LINE",
"233 500 LINE",
"-6 500 LINE",
"-6 448 LINE",
"233 448 LINE"
);
}
);
width = 503;
}
);
unicode = 2021;
userData = {
org.robofab.postScriptHintData = {
};
};
},
{
glyphname = bullet;
layers = (
{
layerId = "366068B8-3C1B-4939-B859-022828941345";
name = Regular;
paths = (
{
closed = 1;
nodes = (
"199 694 CURVE SMOOTH",
"280 694 OFFCURVE",
"301 734 OFFCURVE",
"301 788 CURVE SMOOTH",
"301 844 OFFCURVE",
"280 883 OFFCURVE",
"199 883 CURVE SMOOTH",
"120 883 OFFCURVE",
"97 831 OFFCURVE",
"97 788 CURVE SMOOTH",
"97 734 OFFCURVE",
"121 694 OFFCURVE"
);
}
);
width = 386;
}
);
unicode = 2022;
userData = {
org.robofab.postScriptHintData = {
};
};
},
{
glyphname = lc_right_curve;
layers = (
{
layerId = "366068B8-3C1B-4939-B859-022828941345";
name = Regular;
paths = (
{
closed = 1;
nodes = (
"425 -20 CURVE SMOOTH",
"274 -20 OFFCURVE",
"193 111 OFFCURVE",
"172 147 CURVE",
"172 207 LINE",
"215 124 OFFCURVE",
"308 30 OFFCURVE",
"425 30 CURVE SMOOTH",
"595 30 OFFCURVE",
"632 159 OFFCURVE",
"632 495 CURVE SMOOTH",
"632 663 LINE SMOOTH",
"632 999 OFFCURVE",
"605 1122 OFFCURVE",
"430 1122 CURVE SMOOTH",
"287 1122 OFFCURVE",
"183 960 OFFCURVE",
"170 940 CURVE",
"170 985 LINE",
"189 1037 OFFCURVE",
"274 1170 OFFCURVE",
"430 1172 CURVE SMOOTH",
"637 1172 OFFCURVE",
"696 1021 OFFCURVE",
"696 662 CURVE SMOOTH",
"696 497 LINE SMOOTH",
"696 134 OFFCURVE",
"630 -20 OFFCURVE"
);
}
);
width = 742;
}
);
userData = {
com.typemytype.robofont.layerData = {
};
};
},
{
glyphname = lc_xheight_curve_stem;
layers = (
{
layerId = "366068B8-3C1B-4939-B859-022828941345";
name = Regular;
paths = (
{
closed = 1;
nodes = (
"169 926 LINE",
"237 1046 OFFCURVE",
"340 1122 OFFCURVE",
"445 1122 CURVE SMOOTH",
"520 1122 OFFCURVE",
"602 1085 OFFCURVE",
"602 916 CURVE SMOOTH",
"602 0 LINE",
"667 0 LINE",
"667 907 LINE SMOOTH",
"667 1125 OFFCURVE",
"546 1172 OFFCURVE",
"455 1172 CURVE SMOOTH",
"335 1172 OFFCURVE",
"230 1100 OFFCURVE",
"169 979 CURVE"
);
}
);
width = 500;
}
);
userData = {
anchors = (
);
b = {
};
com.typemytype.robofont.layerData = {
};
components = (
);
contours = {
};
lib = {
};
name = lc_xheight_curve_stem;
points = {
};
segmentType = line;
unicodes = (
);
width = 500;
x = 135;
y = 1153;
};
},
{
glyphname = lc_xheight_stem;
layers = (
{
layerId = "366068B8-3C1B-4939-B859-022828941345";
name = Regular;
paths = (
{
closed = 1;
nodes = (
"135 0 LINE",
"199 0 LINE",
"199 1153 LINE",
"135 1153 LINE"
);
}
);
width = 500;
}
);
userData = {
com.typemytype.robofont.layerData = {
};
};
},
{
glyphname = lc_ascender_stem;
layers = (
{
layerId = "366068B8-3C1B-4939-B859-022828941345";
name = Regular;
paths = (
{
closed = 1;
nodes = (
"202 1688 LINE",
"202 0 LINE",
"138 0 LINE",
"138 1688 LINE"
);
}
